<svg xmlns="http://www.w3.org/2000/svg" xmlns:xlink="http://www.w3.org/1999/xlink" width="500" zoomAndPan="magnify" viewBox="0 0 375 374.999991" height="500" preserveAspectRatio="xMidYMid meet" version="1.0"><defs><clipPath id="e00689c0da"><path d="M 1.875 18 L 172 18 L 172 167 L 1.875 167 Z M 1.875 18 " clip-rule="nonzero"/></clipPath></defs><rect x="-37.5" width="450" fill="#ffffff" y="-37.499999" height="449.999989" fill-opacity="1"/><rect x="-37.5" width="450" fill="#ffffff" y="-37.499999" height="449.999989" fill-opacity="1"/><path fill="#d4c4b7" d="M 293.816406 284.945312 C 291.476562 283.296875 288.699219 281.867188 285.648438 280.613281 C 291.734375 274.214844 296.960938 266.894531 302.871094 260.246094 C 322.734375 261.277344 334.5 269.792969 330.574219 287.101562 C 325.910156 291.320312 321.679688 296 317.078125 300.296875 C 312.828125 304.265625 308.15625 307.554688 303.492188 310.914062 C 306.457031 301.851562 304.582031 292.535156 293.816406 284.945312 " fill-opacity="1" fill-rule="nonzero"/><path fill="#d4c4b7" d="M 296.386719 52.390625 C 293.519531 49.136719 290.117188 46.511719 286.757812 43.789062 C 284.980469 42.339844 283.324219 40.738281 281.398438 39.492188 C 279.734375 38.410156 278.066406 37.382812 276.550781 36.09375 C 276.320312 35.894531 276.152344 35.683594 276.039062 35.464844 C 273.839844 34.144531 271.664062 32.863281 269.769531 31.730469 C 240.054688 16.378906 194.246094 21.46875 152 32.945312 C 153.269531 35.492188 154.445312 38.085938 155.332031 40.800781 C 155.957031 42.707031 156.363281 44.628906 156.566406 46.5625 C 207.296875 37.527344 262.164062 35.035156 298.089844 54.265625 C 297.515625 53.648438 296.949219 53.027344 296.386719 52.390625 " fill-opacity="1" fill-rule="nonzero"/><path fill="#d4c4b7" d="M 354.726562 142.433594 C 353.84375 137.558594 352.957031 132.683594 351.746094 127.878906 C 350.6875 123.65625 348.816406 119.804688 347.425781 115.71875 C 346.792969 115.351562 346.40625 114.683594 346.625 113.828125 C 345.933594 112.296875 345.183594 110.65625 344.355469 108.847656 C 327.949219 76.78125 278.109375 71.375 221.082031 80.226562 C 218.859375 90.894531 215.226562 101.152344 211.644531 111.425781 C 307.0625 103.25 342.894531 126.554688 355.976562 148.472656 C 355.519531 146.46875 355.09375 144.457031 354.726562 142.433594 " fill-opacity="1" fill-rule="nonzero"/><path fill="#d4c4b7" d="M 357.371094 235.914062 C 358.039062 233.480469 359.117188 230.980469 359.464844 228.484375 C 359.707031 226.746094 359.785156 225.191406 360.769531 223.78125 C 361.332031 220.71875 361.859375 217.695312 362.316406 215.066406 C 366.484375 174.539062 330.726562 160.464844 280.484375 162.582031 C 279.878906 164.28125 279.222656 165.964844 278.515625 167.628906 C 273.414062 179.597656 266.089844 190.328125 259.03125 201.214844 C 326.558594 199.71875 356.847656 218.574219 349.382812 257.742188 C 350.230469 256.023438 351.054688 254.296875 351.8125 252.527344 C 351.902344 252.320312 352.007812 252.144531 352.128906 252 C 353.617188 246.558594 355.875 241.363281 357.371094 235.914062 " fill-opacity="1" fill-rule="nonzero"/><path fill="#8b7355" d="M 19.101562 103.019531 C 63.171875 88.433594 96.671875 35.527344 77.910156 41.625 C 30.023438 57.1875 19.101562 103.019531 18.707031 103.132812 C 18.824219 103.097656 18.984375 103.058594 19.101562 103.019531 " fill-opacity="1" fill-rule="nonzero"/><g clip-path="url(#e00689c0da)"><path fill="#8b7355" d="M 128.058594 37.679688 C 126.519531 29.3125 116.460938 28.421875 101.808594 35.355469 C 108.5 28.714844 120.027344 23.824219 128.582031 21.464844 C 160.082031 12.773438 182.867188 24 164.746094 57.296875 C 136.0625 110 47.828125 160.140625 1.914062 166.023438 C 1.914062 166.023438 128.832031 65.914062 128.058594 37.679688 " fill-opacity="1" fill-rule="nonzero"/></g><path fill="#8b7355" d="M 13.03125 258.324219 C 62.722656 254.851562 247.113281 146.875 256.394531 57.476562 C 260.164062 21.1875 225.09375 13.886719 213.496094 11.90625 C 209.394531 11.207031 203.902344 10.40625 199.761719 10 C 156.835938 5.753906 125.277344 18.003906 125.277344 18.003906 C 158.042969 10.574219 228.726562 0.0078125 202.109375 61.78125 C 169.488281 129.421875 13.03125 258.324219 13.03125 258.324219 " fill-opacity="1" fill-rule="nonzero"/><path fill="#8b7355" d="M 69.804688 334.148438 C 120.398438 338.25 367.117188 177.5625 324.160156 80.757812 C 322.953125 78.027344 320.925781 73.457031 314.824219 66.648438 C 314.824219 66.648438 309.320312 60.988281 307.402344 59.183594 C 293.992188 46.582031 293.03125 46.578125 284.21875 40.554688 C 279.90625 37.871094 274.203125 34.210938 269.769531 31.730469 C 288.15625 43.3125 302.035156 60.605469 279.328125 108.3125 C 232.246094 197.753906 69.804688 334.148438 69.804688 334.148438 " fill-opacity="1" fill-rule="nonzero"/><path fill="#8b7355" d="M 336.957031 174.382812 C 346.132812 154.964844 355.023438 132.289062 344.355469 108.847656 C 352.257812 125.636719 353.921875 129.414062 358.351562 146.046875 C 359.988281 152.195312 361.292969 160.601562 362.378906 166.871094 C 373.070312 250.347656 209.933594 359.535156 153.375 370.550781 C 153.375 370.550781 303.484375 237.492188 336.957031 174.382812 " fill-opacity="1" fill-rule="nonzero"/><path fill="#8b7355" d="M 280.445312 346.882812 C 309.675781 326.90625 324.878906 309.152344 341.0625 279.179688 C 343.605469 274.472656 346.734375 268.050781 348.933594 263.171875 C 354.988281 247.648438 355.625 246.023438 358.597656 234.550781 C 359.8125 228.726562 361.417969 220.949219 362.316406 215.066406 C 360.085938 226.042969 359.332031 229.742188 351.996094 244.371094 C 312.421875 313.820312 250.183594 360.882812 215.972656 369.691406 C 215.972656 369.691406 239.289062 375.011719 280.445312 346.882812 " fill-opacity="1" fill-rule="nonzero"/></svg>