<svg xmlns="http://www.w3.org/2000/svg" xmlns:xlink="http://www.w3.org/1999/xlink" width="794" zoomAndPan="magnify" viewBox="0 0 594.95996 842.24997" height="1123" preserveAspectRatio="xMidYMid meet" version="1.0"><defs><clipPath id="0245c3e83c"><path d="M 0.246094 0 L 594.675781 0 L 594.675781 841.5 L 0.246094 841.5 Z M 0.246094 0 " clip-rule="nonzero"/></clipPath><clipPath id="bbb44a6ee8"><path d="M 115.753906 246.441406 L 476 246.441406 L 476 594.878906 L 115.753906 594.878906 Z M 115.753906 246.441406 " clip-rule="nonzero"/></clipPath></defs><g clip-path="url(#0245c3e83c)"><path fill="#ffffff" d="M 0.246094 0 L 595.214844 0 L 595.214844 841.5 L 0.246094 841.5 Z M 0.246094 0 " fill-opacity="1" fill-rule="nonzero"/><path fill="#ffffff" d="M 0.246094 0 L 595.214844 0 L 595.214844 841.5 L 0.246094 841.5 Z M 0.246094 0 " fill-opacity="1" fill-rule="nonzero"/></g><path fill="#000000" d="M 146.148438 317.371094 C 153.035156 317.371094 158.640625 311.757812 158.640625 304.859375 C 158.640625 297.964844 153.035156 292.351562 146.148438 292.351562 C 139.257812 292.351562 133.65625 297.964844 133.65625 304.859375 C 133.65625 311.757812 139.261719 317.371094 146.148438 317.371094 Z M 146.148438 303.355469 C 146.976562 303.355469 147.648438 304.03125 147.648438 304.859375 C 147.648438 305.6875 146.976562 306.363281 146.148438 306.363281 C 145.320312 306.363281 144.644531 305.691406 144.644531 304.859375 C 144.648438 304.03125 145.320312 303.355469 146.148438 303.355469 Z M 146.148438 303.355469 " fill-opacity="1" fill-rule="nonzero"/><path fill="#000000" d="M 177.863281 317.371094 C 184.75 317.371094 190.355469 311.757812 190.355469 304.859375 C 190.355469 297.964844 184.75 292.351562 177.863281 292.351562 C 170.972656 292.351562 165.371094 297.964844 165.371094 304.859375 C 165.371094 311.757812 170.972656 317.371094 177.863281 317.371094 Z M 177.863281 303.355469 C 178.6875 303.355469 179.363281 304.03125 179.363281 304.859375 C 179.363281 305.6875 178.691406 306.363281 177.863281 306.363281 C 177.03125 306.363281 176.359375 305.691406 176.359375 304.859375 C 176.359375 304.03125 177.035156 303.355469 177.863281 303.355469 Z M 177.863281 303.355469 " fill-opacity="1" fill-rule="nonzero"/><path fill="#000000" d="M 209.574219 317.371094 C 216.464844 317.371094 222.066406 311.757812 222.066406 304.859375 C 222.066406 297.964844 216.464844 292.351562 209.574219 292.351562 C 202.6875 292.351562 197.082031 297.964844 197.082031 304.859375 C 197.082031 311.757812 202.6875 317.371094 209.574219 317.371094 Z M 209.574219 303.355469 C 210.402344 303.355469 211.078125 304.03125 211.078125 304.859375 C 211.078125 305.6875 210.402344 306.363281 209.574219 306.363281 C 208.746094 306.363281 208.074219 305.691406 208.074219 304.859375 C 208.074219 304.03125 208.746094 303.355469 209.574219 303.355469 Z M 209.574219 303.355469 " fill-opacity="1" fill-rule="nonzero"/><path fill="#000000" d="M 156.671875 439.585938 L 370.929688 439.585938 C 379.675781 439.585938 386.789062 432.460938 386.789062 423.707031 L 386.789062 367.707031 C 386.789062 358.949219 379.675781 351.828125 370.929688 351.828125 L 156.671875 351.828125 C 147.925781 351.828125 140.8125 358.953125 140.8125 367.707031 L 140.8125 423.707031 C 140.8125 432.464844 147.925781 439.585938 156.671875 439.585938 Z M 151.800781 367.707031 C 151.800781 365.019531 153.988281 362.832031 156.671875 362.832031 L 370.929688 362.832031 C 373.613281 362.832031 375.800781 365.019531 375.800781 367.707031 L 375.800781 423.707031 C 375.800781 426.394531 373.613281 428.582031 370.929688 428.582031 L 156.671875 428.582031 C 153.984375 428.582031 151.800781 426.394531 151.800781 423.707031 Z M 151.800781 367.707031 " fill-opacity="1" fill-rule="nonzero"/><path fill="#000000" d="M 194.378906 421.5 C 197.175781 421.191406 199.527344 420.367188 201.4375 419.023438 C 203.347656 417.683594 204.851562 415.890625 205.953125 413.648438 C 207.054688 411.402344 207.609375 409.09375 207.609375 406.71875 C 207.609375 403.707031 206.753906 401.082031 205.046875 398.847656 C 203.339844 396.617188 200.898438 395.039062 197.71875 394.113281 C 199.972656 393.09375 201.757812 391.558594 203.070312 389.519531 C 204.386719 387.476562 205.046875 385.234375 205.046875 382.789062 C 205.046875 380.53125 204.511719 378.496094 203.445312 376.679688 C 202.378906 374.863281 201.042969 373.410156 199.445312 372.316406 C 197.84375 371.226562 196.03125 370.507812 194.003906 370.164062 C 191.976562 369.820312 188.898438 369.644531 184.773438 369.644531 L 163.933594 369.644531 L 163.933594 421.855469 L 181.683594 421.855469 C 188.390625 421.808594 192.625 421.691406 194.378906 421.5 Z M 174.460938 378.335938 L 180.507812 378.335938 C 185.464844 378.335938 188.460938 378.398438 189.507812 378.515625 C 191.261719 378.726562 192.582031 379.339844 193.472656 380.347656 C 194.363281 381.359375 194.804688 382.671875 194.804688 384.285156 C 194.804688 385.96875 194.289062 387.328125 193.257812 388.363281 C 192.226562 389.394531 190.8125 390.019531 189.007812 390.230469 C 188.011719 390.351562 185.464844 390.410156 181.363281 390.410156 L 174.460938 390.410156 Z M 174.460938 399.101562 L 182.964844 399.101562 C 187.75 399.101562 190.863281 399.347656 192.300781 399.847656 C 193.734375 400.347656 194.832031 401.140625 195.589844 402.234375 C 196.347656 403.324219 196.726562 404.65625 196.726562 406.222656 C 196.726562 408.074219 196.234375 409.550781 195.25 410.65625 C 194.265625 411.761719 192.992188 412.453125 191.425781 412.738281 C 190.40625 412.953125 188 413.058594 184.207031 413.058594 L 174.460938 413.058594 Z M 174.460938 399.101562 " fill-opacity="1" fill-rule="nonzero"/><path fill="#000000" d="M 253.488281 413.058594 L 227.3125 413.058594 L 227.3125 370.074219 L 216.785156 370.074219 L 216.785156 421.855469 L 253.488281 421.855469 Z M 253.488281 413.058594 " fill-opacity="1" fill-rule="nonzero"/><path fill="#000000" d="M 284.214844 422.746094 C 291.871094 422.746094 297.992188 420.367188 302.566406 415.605469 C 307.140625 410.84375 309.429688 404.25 309.429688 395.824219 C 309.429688 387.324219 307.125 380.6875 302.511719 375.914062 C 297.898438 371.140625 291.753906 368.757812 284.070312 368.757812 C 279.828125 368.757812 276.082031 369.445312 272.832031 370.820312 C 270.390625 371.84375 268.144531 373.410156 266.09375 375.523438 C 264.042969 377.636719 262.425781 380.023438 261.238281 382.679688 C 259.652344 386.289062 258.855469 390.753906 258.855469 396.070312 C 258.855469 404.382812 261.144531 410.90625 265.71875 415.640625 C 270.296875 420.378906 276.460938 422.746094 284.214844 422.746094 Z M 273.6875 382.238281 C 276.34375 379.257812 279.839844 377.765625 284.179688 377.765625 C 288.519531 377.765625 292 379.238281 294.617188 382.183594 C 297.238281 385.125 298.546875 389.589844 298.546875 395.574219 C 298.546875 401.628906 297.203125 406.167969 294.511719 409.195312 C 291.820312 412.222656 288.375 413.734375 284.179688 413.734375 C 279.984375 413.734375 276.523438 412.210938 273.796875 409.160156 C 271.070312 406.109375 269.707031 401.628906 269.707031 395.714844 C 269.703125 389.710938 271.03125 385.214844 273.6875 382.238281 Z M 273.6875 382.238281 " fill-opacity="1" fill-rule="nonzero"/><path fill="#000000" d="M 328.03125 419.308594 C 332.085938 421.601562 336.839844 422.746094 342.292969 422.746094 C 346.582031 422.746094 350.820312 421.933594 355.007812 420.308594 C 359.191406 418.683594 362.386719 416.800781 364.589844 414.664062 L 364.589844 393.863281 L 341.902344 393.863281 L 341.902344 402.660156 L 353.957031 402.660156 L 353.957031 409.285156 C 352.371094 410.519531 350.464844 411.570312 348.25 412.4375 C 346.03125 413.304688 343.820312 413.734375 341.617188 413.734375 C 337.160156 413.734375 333.554688 412.1875 330.804688 409.089844 C 328.054688 405.988281 326.679688 401.34375 326.679688 395.144531 C 326.679688 389.402344 328.039062 385.066406 330.753906 382.148438 C 333.46875 379.226562 337.125 377.765625 341.722656 377.765625 C 344.757812 377.765625 347.289062 378.507812 349.316406 379.992188 C 351.34375 381.476562 352.726562 383.5 353.460938 386.066406 L 363.917969 384.105469 C 362.871094 379.3125 360.53125 375.554688 356.890625 372.835938 C 353.253906 370.117188 348.195312 368.757812 341.722656 368.757812 C 336.746094 368.757812 332.582031 369.625 329.242188 371.355469 C 324.855469 373.613281 321.523438 376.851562 319.246094 381.078125 C 316.972656 385.304688 315.832031 390.136719 315.832031 395.574219 C 315.832031 400.582031 316.851562 405.21875 318.890625 409.480469 C 320.929688 413.742188 323.976562 417.019531 328.03125 419.308594 Z M 328.03125 419.308594 " fill-opacity="1" fill-rule="nonzero"/><path fill="#000000" d="M 248.855469 455.316406 L 145.589844 455.316406 C 142.554688 455.316406 140.09375 457.78125 140.09375 460.820312 L 140.09375 566.773438 C 140.09375 569.8125 142.554688 572.277344 145.589844 572.277344 L 248.855469 572.277344 C 251.890625 572.277344 254.351562 569.8125 254.351562 566.773438 L 254.351562 460.820312 C 254.351562 457.78125 251.890625 455.316406 248.855469 455.316406 Z M 243.359375 561.269531 L 151.082031 561.269531 L 151.082031 466.324219 L 243.359375 466.324219 Z M 243.359375 561.269531 " fill-opacity="1" fill-rule="nonzero"/><path fill="#000000" d="M 168.117188 552.992188 L 226.324219 552.992188 C 229.359375 552.992188 231.820312 550.53125 231.820312 547.488281 L 231.820312 541.546875 C 231.820312 529.632812 225.773438 518.761719 216.019531 512.449219 C 219.019531 508.488281 220.800781 503.554688 220.800781 498.210938 C 220.800781 485.191406 210.222656 474.597656 197.222656 474.597656 C 184.21875 474.597656 173.644531 485.191406 173.644531 498.210938 C 173.644531 503.554688 175.425781 508.488281 178.425781 512.449219 C 168.675781 518.761719 162.625 529.648438 162.625 541.546875 L 162.625 547.488281 C 162.625 550.53125 165.085938 552.992188 168.117188 552.992188 Z M 197.222656 485.605469 C 204.164062 485.605469 209.808594 491.261719 209.808594 498.210938 C 209.808594 505.164062 204.164062 510.820312 197.222656 510.820312 C 190.28125 510.820312 184.632812 505.164062 184.632812 498.210938 C 184.632812 491.261719 190.28125 485.605469 197.222656 485.605469 Z M 173.613281 541.546875 C 173.613281 532.117188 179.183594 523.621094 187.8125 519.859375 C 190.695312 521.121094 193.878906 521.824219 197.222656 521.824219 C 200.566406 521.824219 203.746094 521.121094 206.632812 519.859375 C 215.265625 523.621094 220.828125 532.105469 220.828125 541.546875 L 220.828125 541.988281 L 173.613281 541.988281 Z M 173.613281 541.546875 " fill-opacity="1" fill-rule="nonzero"/><g clip-path="url(#bbb44a6ee8)"><path fill="#000000" d="M 462.753906 389.234375 C 456.472656 384.984375 448.914062 383.4375 441.472656 384.882812 C 434.027344 386.328125 427.59375 390.585938 423.351562 396.878906 L 415.292969 408.824219 L 411.832031 413.957031 L 411.832031 344.101562 L 412.714844 343.734375 C 414.863281 342.84375 416.214844 340.695312 416.097656 338.371094 L 415.65625 329.664062 L 418.949219 326.367188 L 427.640625 326.8125 C 429.960938 326.933594 432.109375 325.574219 433 323.421875 L 437.632812 312.21875 C 438.523438 310.066406 437.964844 307.585938 436.238281 306.027344 L 429.777344 300.1875 L 429.777344 295.523438 L 436.238281 289.679688 C 437.964844 288.121094 438.523438 285.640625 437.632812 283.492188 L 433 272.285156 C 432.109375 270.132812 429.960938 268.777344 427.640625 268.894531 L 418.949219 269.339844 L 415.65625 266.042969 L 416.097656 257.335938 C 416.21875 255.011719 414.863281 252.863281 412.714844 251.972656 L 401.523438 247.332031 C 399.375 246.441406 396.898438 247 395.339844 248.726562 L 389.507812 255.199219 L 384.851562 255.199219 L 379.015625 248.726562 C 377.457031 247 374.984375 246.441406 372.835938 247.332031 L 361.644531 251.972656 C 359.496094 252.863281 358.140625 255.011719 358.261719 257.335938 L 358.703125 266.042969 L 355.410156 269.339844 L 346.71875 268.894531 C 344.398438 268.773438 342.25 270.132812 341.359375 272.285156 L 339.46875 276.859375 L 138.128906 276.859375 C 125.800781 276.859375 115.769531 286.902344 115.769531 299.246094 L 115.769531 572.496094 C 115.769531 584.839844 125.800781 594.882812 138.128906 594.882812 L 389.472656 594.882812 C 401.800781 594.882812 411.828125 584.839844 411.828125 572.496094 L 411.828125 515.511719 L 462.332031 440.636719 L 470.390625 428.691406 C 479.148438 415.707031 475.726562 398.003906 462.753906 389.234375 Z M 389.402344 529.101562 L 374.992188 519.351562 L 360.578125 509.605469 L 421.324219 419.542969 L 444.992188 435.550781 L 450.148438 439.039062 Z M 379.703125 535.820312 L 356.128906 547.316406 L 357.976562 521.125 Z M 353.757812 288.992188 L 348.363281 284.113281 L 350.03125 280.085938 L 357.289062 280.457031 C 358.839844 280.535156 360.355469 279.953125 361.457031 278.851562 L 368.203125 272.09375 C 369.304688 270.992188 369.882812 269.476562 369.804688 267.921875 L 369.433594 260.652344 L 373.457031 258.984375 L 378.332031 264.386719 C 379.371094 265.542969 380.855469 266.203125 382.410156 266.203125 L 391.949219 266.203125 C 393.503906 266.203125 394.988281 265.542969 396.027344 264.386719 L 400.898438 258.984375 L 404.925781 260.652344 L 404.554688 267.921875 C 404.472656 269.476562 405.054688 270.992188 406.15625 272.09375 L 412.902344 278.851562 C 414.003906 279.953125 415.519531 280.539062 417.070312 280.457031 L 424.328125 280.085938 L 425.996094 284.113281 L 420.597656 288.992188 C 419.445312 290.035156 418.785156 291.519531 418.785156 293.078125 L 418.785156 302.632812 C 418.785156 304.1875 419.445312 305.671875 420.597656 306.714844 L 425.996094 311.59375 L 424.328125 315.625 L 417.070312 315.25 C 415.515625 315.171875 414.003906 315.753906 412.902344 316.855469 L 406.15625 323.613281 C 405.054688 324.714844 404.472656 326.230469 404.554688 327.785156 L 404.925781 335.054688 L 400.898438 336.722656 L 396.027344 331.320312 C 394.988281 330.164062 393.503906 329.503906 391.949219 329.503906 L 382.410156 329.503906 C 380.855469 329.503906 379.371094 330.164062 378.332031 331.320312 L 373.457031 336.722656 L 369.433594 335.054688 L 369.804688 327.785156 C 369.886719 326.230469 369.304688 324.714844 368.203125 323.613281 L 361.457031 316.855469 C 360.355469 315.757812 358.84375 315.171875 357.289062 315.25 L 350.03125 315.625 L 348.363281 311.59375 L 353.757812 306.714844 C 354.914062 305.671875 355.574219 304.1875 355.574219 302.632812 L 355.574219 293.078125 C 355.574219 291.519531 354.914062 290.035156 353.757812 288.992188 Z M 138.128906 287.867188 L 336.796875 287.867188 C 337.101562 288.542969 337.546875 289.160156 338.121094 289.679688 L 344.582031 295.523438 L 344.582031 300.1875 L 338.121094 306.027344 C 336.394531 307.585938 335.835938 310.066406 336.726562 312.21875 L 339.527344 318.992188 L 126.761719 321.222656 L 126.761719 299.246094 C 126.761719 292.972656 131.859375 287.867188 138.128906 287.867188 Z M 400.839844 572.496094 C 400.839844 578.773438 395.742188 583.878906 389.476562 583.878906 L 138.128906 583.878906 C 131.859375 583.878906 126.761719 578.773438 126.761719 572.496094 L 126.761719 332.230469 L 358.660156 329.796875 C 358.675781 329.796875 358.6875 329.796875 358.699219 329.796875 L 358.261719 338.371094 C 358.140625 340.695312 359.496094 342.84375 361.644531 343.734375 L 372.835938 348.378906 C 374.984375 349.269531 377.460938 348.710938 379.015625 346.980469 L 384.851562 340.511719 L 389.507812 340.511719 L 395.339844 346.980469 C 396.40625 348.160156 397.898438 348.796875 399.421875 348.796875 C 399.894531 348.796875 400.371094 348.734375 400.839844 348.609375 L 400.839844 429.355469 C 400.839844 429.632812 400.863281 429.898438 400.898438 430.164062 L 348.394531 508.003906 C 347.519531 509.304688 347.273438 510.839844 347.582031 512.261719 L 344.496094 556.050781 C 344.359375 558.011719 345.277344 559.898438 346.902344 560.996094 C 347.828125 561.621094 348.902344 561.941406 349.980469 561.941406 C 350.800781 561.941406 351.625 561.757812 352.386719 561.382812 L 391.800781 542.164062 C 391.84375 542.160156 391.886719 542.152344 391.929688 542.144531 C 393.359375 541.867188 394.621094 541.03125 395.4375 539.820312 L 400.839844 531.808594 Z M 461.28125 422.53125 L 456.300781 429.917969 L 427.476562 410.421875 L 432.457031 403.039062 C 435.058594 399.183594 439 396.574219 443.5625 395.6875 C 448.121094 394.804688 452.753906 395.75 456.605469 398.351562 C 464.550781 403.726562 466.648438 414.574219 461.28125 422.53125 Z M 461.28125 422.53125 " fill-opacity="1" fill-rule="nonzero"/></g><path fill="#000000" d="M 268.96875 468.820312 L 354.582031 468.820312 L 354.582031 479.824219 L 268.96875 479.824219 Z M 268.96875 468.820312 " fill-opacity="1" fill-rule="nonzero"/><path fill="#000000" d="M 268.96875 492.625 L 344.410156 492.625 L 344.410156 503.628906 L 268.96875 503.628906 Z M 268.96875 492.625 " fill-opacity="1" fill-rule="nonzero"/><path fill="#000000" d="M 268.96875 516.429688 L 336.78125 516.429688 L 336.78125 527.433594 L 268.96875 527.433594 Z M 268.96875 516.429688 " fill-opacity="1" fill-rule="nonzero"/><path fill="#000000" d="M 268.96875 540.234375 L 336.78125 540.234375 L 336.78125 551.238281 L 268.96875 551.238281 Z M 268.96875 540.234375 " fill-opacity="1" fill-rule="nonzero"/><path fill="#000000" d="M 387.179688 321.566406 C 400.234375 321.566406 410.859375 310.929688 410.859375 297.855469 C 410.859375 284.78125 400.238281 274.140625 387.179688 274.140625 C 374.121094 274.140625 363.5 284.777344 363.5 297.855469 C 363.5 310.929688 374.121094 321.566406 387.179688 321.566406 Z M 387.179688 285.148438 C 394.175781 285.148438 399.867188 290.847656 399.867188 297.855469 C 399.867188 304.859375 394.175781 310.5625 387.179688 310.5625 C 380.183594 310.5625 374.488281 304.863281 374.488281 297.855469 C 374.488281 290.847656 380.183594 285.148438 387.179688 285.148438 Z M 387.179688 285.148438 " fill-opacity="1" fill-rule="nonzero"/></svg>