<svg xmlns="http://www.w3.org/2000/svg" xmlns:xlink="http://www.w3.org/1999/xlink" width="794" zoomAndPan="magnify" viewBox="0 0 594.95996 842.24997" height="1123" preserveAspectRatio="xMidYMid meet" version="1.0"><defs><clipPath id="8de6ecc2eb"><path d="M 0.246094 0 L 594.675781 0 L 594.675781 841.5 L 0.246094 841.5 Z M 0.246094 0 " clip-rule="nonzero"/></clipPath><clipPath id="d6859aed50"><path d="M 128 192 L 466 192 L 466 650.324219 L 128 650.324219 Z M 128 192 " clip-rule="nonzero"/></clipPath></defs><g clip-path="url(#8de6ecc2eb)"><path fill="#ffffff" d="M 0.246094 0 L 595.214844 0 L 595.214844 841.5 L 0.246094 841.5 Z M 0.246094 0 " fill-opacity="1" fill-rule="nonzero"/><path fill="#ffffff" d="M 0.246094 0 L 595.214844 0 L 595.214844 841.5 L 0.246094 841.5 Z M 0.246094 0 " fill-opacity="1" fill-rule="nonzero"/></g><g clip-path="url(#d6859aed50)"><path fill="#222831" d="M 465.523438 350.984375 C 460.472656 265.894531 389.699219 196.445312 304.371094 192.957031 C 257.910156 191.042969 214.097656 207.765625 180.644531 239.78125 C 147.308594 271.910156 128.894531 314.996094 128.894531 361.324219 C 128.894531 421.257812 161.148438 477.097656 213.023438 507.195312 C 224.214844 513.691406 231.199219 525.71875 231.199219 538.488281 L 231.199219 577.949219 C 231.199219 595.761719 244.199219 610.683594 261.285156 613.457031 L 261.289062 638.128906 C 261.289062 644.753906 266.703125 650.167969 273.320312 650.167969 L 321.464844 650.167969 C 328.078125 650.167969 333.5 644.753906 333.5 638.128906 L 333.5 613.457031 C 350.589844 610.691406 363.589844 595.761719 363.589844 577.949219 L 363.589844 538.488281 C 363.589844 525.71875 370.566406 513.695312 381.761719 507.195312 C 434.234375 476.746094 465.890625 421.503906 465.890625 361.324219 C 465.882812 357.832031 465.753906 354.472656 465.523438 350.984375 M 309.425781 626.082031 L 285.351562 626.082031 L 285.351562 614.046875 L 309.425781 614.046875 Z M 339.507812 577.945312 C 339.507812 584.574219 334.089844 589.980469 327.472656 589.980469 L 267.296875 589.980469 C 260.675781 589.980469 255.261719 584.574219 255.261719 577.945312 L 255.261719 565.90625 L 339.503906 565.90625 L 339.503906 577.945312 Z M 369.714844 486.375 C 351.0625 497.199219 339.507812 517.179688 339.507812 538.488281 L 339.507812 541.855469 L 255.265625 541.855469 L 255.265625 538.488281 C 255.265625 517.046875 243.707031 497.203125 225.058594 486.375 C 180.648438 460.617188 152.964844 412.71875 152.964844 361.324219 C 152.964844 321.613281 168.734375 284.664062 197.378906 257.109375 C 224.453125 231.113281 259.835938 216.914062 297.386719 216.914062 C 299.3125 216.914062 301.355469 216.914062 303.40625 217.027344 C 376.457031 219.917969 437.234375 279.492188 441.566406 352.425781 C 444.816406 407.417969 417.257812 458.808594 369.714844 486.375 Z M 369.714844 486.375 " fill-opacity="1" fill-rule="evenodd"/></g><path fill="#222831" d="M 339.507812 391.402344 C 339.507812 410.40625 326.753906 426.542969 309.425781 431.714844 L 309.425781 445.554688 C 309.425781 452.171875 304.003906 457.59375 297.386719 457.59375 C 290.769531 457.589844 285.351562 452.171875 285.351562 445.554688 L 285.351562 431.714844 C 268.019531 426.539062 255.261719 410.417969 255.261719 391.402344 C 255.261719 384.78125 260.675781 379.363281 267.292969 379.363281 C 273.910156 379.363281 279.332031 384.78125 279.332031 391.402344 C 279.332031 401.390625 287.394531 409.449219 297.382812 409.449219 C 307.371094 409.449219 315.433594 401.382812 315.433594 391.402344 C 315.433594 381.402344 307.367188 373.34375 297.382812 373.34375 C 274.152344 373.34375 255.261719 354.453125 255.261719 331.222656 C 255.261719 312.207031 268.019531 296.082031 285.351562 290.902344 L 285.351562 277.066406 C 285.351562 270.445312 290.765625 265.03125 297.386719 265.03125 C 304.003906 265.03125 309.425781 270.449219 309.425781 277.066406 L 309.425781 290.902344 C 326.753906 296.085938 339.507812 312.207031 339.507812 331.222656 C 339.507812 337.839844 334.089844 343.261719 327.472656 343.261719 C 320.855469 343.253906 315.4375 337.839844 315.4375 331.222656 C 315.4375 321.234375 307.371094 313.171875 297.386719 313.171875 C 287.398438 313.171875 279.335938 321.238281 279.335938 331.222656 C 279.335938 341.207031 287.398438 349.273438 297.386719 349.273438 C 320.617188 349.273438 339.507812 368.167969 339.507812 391.402344 " fill-opacity="1" fill-rule="evenodd"/></svg>