<svg xmlns="http://www.w3.org/2000/svg" xmlns:xlink="http://www.w3.org/1999/xlink" width="794" zoomAndPan="magnify" viewBox="0 0 594.95996 842.24997" height="1123" preserveAspectRatio="xMidYMid meet" version="1.0"><defs><clipPath id="a3a1fda3d4"><path d="M 0.246094 0 L 594.675781 0 L 594.675781 841.5 L 0.246094 841.5 Z M 0.246094 0 " clip-rule="nonzero"/></clipPath><clipPath id="1cb0677e24"><path d="M 88.304688 185.703125 L 406 185.703125 L 406 420.246094 L 88.304688 420.246094 Z M 88.304688 185.703125 " clip-rule="nonzero"/></clipPath><clipPath id="1ac84a9602"><path d="M 341 244 L 463.71875 244 L 463.71875 367 L 341 367 Z M 341 244 " clip-rule="nonzero"/></clipPath></defs><g clip-path="url(#a3a1fda3d4)"><path fill="#ffffff" d="M 0.246094 0 L 595.214844 0 L 595.214844 841.5 L 0.246094 841.5 Z M 0.246094 0 " fill-opacity="1" fill-rule="nonzero"/><path fill="#ffffff" d="M 0.246094 0 L 595.214844 0 L 595.214844 841.5 L 0.246094 841.5 Z M 0.246094 0 " fill-opacity="1" fill-rule="nonzero"/></g><path fill="#000000" d="M 223.21875 361.609375 C 219.992188 361.609375 217.355469 364.25 217.355469 367.472656 C 217.355469 370.699219 219.992188 373.335938 223.21875 373.335938 L 270.144531 373.335938 C 273.371094 373.335938 276.011719 370.699219 276.011719 367.472656 C 276.011719 364.25 273.371094 361.609375 270.144531 361.609375 Z M 223.21875 361.609375 " fill-opacity="1" fill-rule="nonzero"/><path fill="#000000" d="M 141.394531 365.714844 C 141.394531 366.042969 141.359375 366.367188 141.296875 366.6875 C 141.234375 367.007812 141.136719 367.320312 141.011719 367.621094 C 140.886719 367.921875 140.734375 368.210938 140.550781 368.484375 C 140.371094 368.753906 140.164062 369.007812 139.933594 369.238281 C 139.699219 369.46875 139.449219 369.675781 139.175781 369.859375 C 138.90625 370.039062 138.617188 370.191406 138.316406 370.320312 C 138.011719 370.445312 137.699219 370.539062 137.378906 370.601562 C 137.058594 370.667969 136.734375 370.699219 136.40625 370.699219 C 136.078125 370.699219 135.753906 370.667969 135.433594 370.601562 C 135.113281 370.539062 134.800781 370.445312 134.5 370.320312 C 134.195312 370.191406 133.910156 370.039062 133.636719 369.859375 C 133.363281 369.675781 133.113281 369.46875 132.882812 369.238281 C 132.648438 369.007812 132.441406 368.753906 132.261719 368.484375 C 132.078125 368.210938 131.925781 367.921875 131.800781 367.621094 C 131.675781 367.320312 131.582031 367.007812 131.515625 366.6875 C 131.453125 366.367188 131.421875 366.042969 131.421875 365.714844 C 131.421875 365.386719 131.453125 365.0625 131.515625 364.742188 C 131.582031 364.421875 131.675781 364.109375 131.800781 363.808594 C 131.925781 363.503906 132.078125 363.21875 132.261719 362.945312 C 132.441406 362.671875 132.648438 362.421875 132.882812 362.191406 C 133.113281 361.957031 133.363281 361.75 133.636719 361.570312 C 133.910156 361.386719 134.195312 361.234375 134.5 361.109375 C 134.800781 360.984375 135.113281 360.890625 135.433594 360.824219 C 135.753906 360.761719 136.078125 360.730469 136.40625 360.730469 C 136.734375 360.730469 137.058594 360.761719 137.378906 360.824219 C 137.699219 360.890625 138.011719 360.984375 138.316406 361.109375 C 138.617188 361.234375 138.90625 361.386719 139.175781 361.570312 C 139.449219 361.75 139.699219 361.957031 139.933594 362.191406 C 140.164062 362.421875 140.371094 362.671875 140.550781 362.945312 C 140.734375 363.21875 140.886719 363.503906 141.011719 363.808594 C 141.136719 364.109375 141.234375 364.421875 141.296875 364.742188 C 141.359375 365.0625 141.394531 365.386719 141.394531 365.714844 Z M 141.394531 365.714844 " fill-opacity="1" fill-rule="nonzero"/><path fill="#000000" d="M 121.742188 365.714844 C 121.742188 366.042969 121.710938 366.367188 121.648438 366.6875 C 121.582031 367.007812 121.488281 367.320312 121.363281 367.621094 C 121.238281 367.921875 121.085938 368.210938 120.902344 368.484375 C 120.71875 368.753906 120.515625 369.007812 120.28125 369.238281 C 120.050781 369.46875 119.800781 369.675781 119.527344 369.859375 C 119.253906 370.039062 118.96875 370.191406 118.664062 370.320312 C 118.363281 370.445312 118.050781 370.539062 117.730469 370.601562 C 117.410156 370.667969 117.085938 370.699219 116.757812 370.699219 C 116.429688 370.699219 116.105469 370.667969 115.785156 370.601562 C 115.460938 370.539062 115.152344 370.445312 114.847656 370.320312 C 114.546875 370.191406 114.257812 370.039062 113.988281 369.859375 C 113.714844 369.675781 113.460938 369.46875 113.230469 369.238281 C 113 369.007812 112.792969 368.753906 112.609375 368.484375 C 112.429688 368.210938 112.277344 367.921875 112.148438 367.621094 C 112.023438 367.320312 111.929688 367.007812 111.867188 366.6875 C 111.800781 366.367188 111.769531 366.042969 111.769531 365.714844 C 111.769531 365.386719 111.800781 365.0625 111.867188 364.742188 C 111.929688 364.421875 112.023438 364.109375 112.148438 363.808594 C 112.277344 363.503906 112.429688 363.21875 112.609375 362.945312 C 112.792969 362.671875 113 362.421875 113.230469 362.191406 C 113.460938 361.957031 113.714844 361.75 113.988281 361.570312 C 114.257812 361.386719 114.546875 361.234375 114.847656 361.109375 C 115.152344 360.984375 115.460938 360.890625 115.785156 360.824219 C 116.105469 360.761719 116.429688 360.730469 116.757812 360.730469 C 117.085938 360.730469 117.410156 360.761719 117.730469 360.824219 C 118.050781 360.890625 118.363281 360.984375 118.664062 361.109375 C 118.96875 361.234375 119.253906 361.386719 119.527344 361.570312 C 119.800781 361.75 120.050781 361.957031 120.28125 362.191406 C 120.515625 362.421875 120.71875 362.671875 120.902344 362.945312 C 121.085938 363.21875 121.238281 363.503906 121.363281 363.808594 C 121.488281 364.109375 121.582031 364.421875 121.648438 364.742188 C 121.710938 365.0625 121.742188 365.386719 121.742188 365.714844 Z M 121.742188 365.714844 " fill-opacity="1" fill-rule="nonzero"/><path fill="#000000" d="M 219.40625 232.320312 C 217.648438 229.679688 213.835938 228.800781 211.195312 230.558594 L 158.402344 265.742188 C 156.644531 266.914062 155.765625 268.671875 155.765625 270.726562 C 155.765625 272.777344 156.644531 274.535156 158.402344 275.707031 C 158.402344 275.707031 211.195312 310.890625 211.195312 310.890625 C 213.835938 312.648438 217.648438 312.0625 219.40625 309.132812 C 221.167969 306.492188 220.582031 302.679688 217.648438 300.921875 L 172.1875 270.726562 L 217.648438 240.527344 C 220.289062 238.769531 221.167969 234.957031 219.40625 232.320312 Z M 219.40625 232.320312 " fill-opacity="1" fill-rule="nonzero"/><path fill="#000000" d="M 273.960938 309.132812 C 275.71875 311.769531 279.53125 312.648438 282.171875 310.890625 L 334.964844 275.707031 C 336.722656 274.535156 337.601562 272.777344 337.601562 270.726562 C 337.601562 268.671875 336.722656 266.914062 334.964844 265.742188 L 282.171875 230.558594 C 279.53125 228.800781 275.71875 229.386719 273.960938 232.320312 C 272.199219 234.957031 272.785156 238.769531 275.71875 240.527344 L 321.179688 270.726562 L 275.71875 300.921875 C 273.078125 302.679688 272.199219 306.492188 273.960938 309.132812 Z M 273.960938 309.132812 " fill-opacity="1" fill-rule="nonzero"/><path fill="#000000" d="M 252.84375 225.28125 L 229.378906 313.234375 C 228.5 316.460938 230.550781 319.683594 233.484375 320.273438 C 234.070312 320.273438 234.363281 320.566406 234.953125 320.566406 C 237.589844 320.566406 239.9375 318.804688 240.523438 316.167969 L 263.988281 228.214844 C 264.867188 224.988281 262.8125 221.765625 259.882812 221.179688 C 256.949219 220.296875 253.722656 222.058594 252.84375 225.28125 Z M 252.84375 225.28125 " fill-opacity="1" fill-rule="nonzero"/><g clip-path="url(#1cb0677e24)"><path fill="#000000" d="M 223.21875 408.519531 L 205.621094 408.519531 C 202.398438 408.519531 199.757812 411.15625 199.757812 414.382812 C 199.757812 417.605469 202.398438 420.246094 205.621094 420.246094 L 287.742188 420.246094 C 290.96875 420.246094 293.609375 417.605469 293.609375 414.382812 C 293.609375 411.15625 290.96875 408.519531 287.742188 408.519531 L 270.144531 408.519531 L 270.144531 390.925781 L 387.460938 390.925781 C 395.085938 390.925781 401.539062 385.941406 403.886719 379.199219 L 397.726562 379.199219 C 395.085938 379.199219 392.742188 378.90625 390.394531 378.027344 C 389.515625 378.613281 388.339844 379.199219 387.167969 379.199219 L 105.90625 379.199219 C 102.679688 379.199219 100.039062 376.5625 100.039062 373.335938 L 100.039062 355.746094 L 348.160156 355.746094 L 347.28125 354.867188 C 344.347656 351.933594 342 348.125 340.828125 344.019531 L 100.039062 344.019531 L 100.039062 203.292969 C 100.039062 200.070312 102.679688 197.429688 105.90625 197.429688 L 387.460938 197.429688 C 390.6875 197.429688 393.328125 200.070312 393.328125 203.292969 L 393.328125 233.199219 C 394.792969 232.90625 396.261719 232.613281 398.019531 232.613281 L 405.058594 232.613281 L 405.058594 203.292969 C 405.058594 193.621094 397.140625 185.703125 387.460938 185.703125 L 105.90625 185.703125 C 96.226562 185.703125 88.308594 193.621094 88.308594 203.292969 L 88.308594 373.335938 C 88.308594 383.011719 96.226562 390.925781 105.90625 390.925781 L 223.21875 390.925781 Z M 234.953125 390.925781 L 258.414062 390.925781 L 258.414062 408.519531 L 234.953125 408.519531 Z M 234.953125 390.925781 " fill-opacity="1" fill-rule="nonzero"/></g><g clip-path="url(#1ac84a9602)"><path fill="#000000" d="M 452.277344 287.4375 C 451.691406 285.96875 451.105469 284.796875 450.519531 283.332031 C 454.332031 277.761719 453.746094 270.136719 448.757812 265.15625 L 442.894531 259.289062 C 440.253906 256.652344 436.441406 255.1875 432.628906 255.1875 C 429.695312 255.1875 427.054688 256.066406 424.710938 257.53125 C 423.535156 256.945312 422.070312 256.359375 420.601562 255.773438 C 419.136719 249.03125 413.269531 244.339844 406.523438 244.339844 L 398.3125 244.339844 C 391.273438 244.339844 385.410156 249.324219 384.234375 255.773438 C 382.769531 256.359375 381.597656 256.945312 380.128906 257.53125 C 377.78125 256.066406 375.144531 255.1875 372.210938 255.1875 C 368.398438 255.1875 364.585938 256.652344 361.945312 259.289062 L 356.078125 265.15625 C 351.09375 270.136719 350.507812 277.761719 354.320312 283.332031 C 353.734375 284.503906 353.148438 285.96875 352.558594 287.4375 C 345.816406 288.902344 341.121094 294.765625 341.121094 301.507812 L 341.121094 309.71875 C 341.121094 316.753906 346.109375 322.617188 352.558594 323.789062 C 353.148438 325.253906 353.734375 326.429688 354.320312 327.894531 C 352.851562 330.238281 351.972656 332.878906 351.972656 335.808594 C 351.972656 339.621094 353.441406 343.433594 356.078125 346.070312 L 361.945312 351.933594 C 364.585938 354.574219 368.398438 356.039062 372.210938 356.039062 C 375.144531 356.039062 377.78125 355.160156 380.128906 353.695312 C 381.300781 354.28125 382.769531 354.867188 384.234375 355.453125 C 385.703125 362.195312 391.566406 366.886719 398.3125 366.886719 L 406.523438 366.886719 C 413.5625 366.886719 419.429688 361.902344 420.601562 355.453125 C 422.070312 354.867188 423.242188 354.28125 424.710938 353.695312 C 427.054688 355.160156 429.695312 356.039062 432.628906 356.039062 C 436.441406 356.039062 440.253906 354.574219 442.894531 351.933594 L 448.757812 346.070312 C 451.398438 343.433594 452.863281 339.621094 452.863281 335.808594 C 452.863281 332.878906 451.984375 330.238281 450.519531 327.894531 C 451.105469 326.722656 451.691406 325.253906 452.277344 323.789062 C 459.023438 322.324219 463.714844 316.460938 463.714844 309.71875 L 463.714844 301.507812 C 463.714844 294.765625 458.730469 288.902344 452.277344 287.4375 Z M 451.984375 310.011719 C 451.984375 311.476562 450.8125 312.648438 449.34375 312.648438 L 443.1875 312.648438 C 442.011719 319.097656 439.667969 324.667969 436.148438 329.652344 L 440.546875 334.050781 C 441.71875 335.222656 441.71875 336.984375 440.546875 337.863281 L 434.679688 343.726562 C 434.09375 344.3125 433.507812 344.605469 432.628906 344.605469 C 431.746094 344.605469 431.160156 344.3125 430.574219 343.726562 L 426.175781 339.328125 C 421.191406 342.847656 415.324219 345.484375 409.164062 346.363281 L 409.164062 352.519531 C 409.164062 353.988281 407.992188 355.160156 406.523438 355.160156 L 398.3125 355.160156 C 396.847656 355.160156 395.671875 353.988281 395.671875 352.519531 L 395.671875 346.949219 C 389.222656 345.777344 383.648438 343.433594 378.664062 339.914062 L 373.675781 344.019531 C 373.089844 344.605469 372.503906 344.898438 371.625 344.898438 C 370.742188 344.898438 370.449219 344.605469 369.863281 344.019531 L 364 338.15625 C 362.824219 336.984375 362.824219 335.222656 364 334.34375 L 368.398438 329.945312 C 364.878906 324.960938 362.238281 319.097656 361.359375 312.941406 L 355.199219 312.941406 C 353.734375 312.941406 352.558594 311.769531 352.558594 310.304688 L 352.558594 302.09375 C 352.558594 300.628906 353.734375 299.457031 355.199219 299.457031 L 361.066406 299.457031 C 362.238281 293.007812 364.585938 287.4375 368.105469 282.453125 L 364 277.46875 C 362.824219 276.296875 362.824219 274.535156 364 273.65625 L 369.863281 267.792969 C 370.449219 267.207031 371.039062 266.914062 371.917969 266.914062 C 372.796875 266.914062 373.382812 267.207031 373.96875 267.792969 L 378.371094 272.191406 C 383.355469 268.671875 389.222656 266.035156 395.378906 265.15625 L 395.378906 258.996094 C 395.378906 257.53125 396.554688 256.359375 398.019531 256.359375 L 406.230469 256.359375 C 407.699219 256.359375 408.871094 257.53125 408.871094 258.996094 L 408.871094 264.859375 C 415.324219 266.035156 420.894531 268.378906 425.882812 271.898438 L 430.28125 267.5 C 430.867188 266.914062 431.453125 266.621094 432.335938 266.621094 C 433.214844 266.621094 433.800781 266.914062 434.386719 267.5 L 440.253906 273.363281 C 441.425781 274.535156 441.425781 276.296875 440.253906 277.175781 L 435.855469 281.574219 C 439.375 286.554688 442.011719 292.417969 442.894531 298.578125 L 449.050781 298.578125 C 450.519531 298.578125 451.691406 299.75 451.691406 301.214844 L 451.691406 310.011719 Z M 451.984375 310.011719 " fill-opacity="1" fill-rule="nonzero"/></g><path fill="#000000" d="M 402.125 282.453125 C 389.222656 282.453125 378.664062 293.007812 378.664062 305.90625 C 378.664062 318.804688 389.222656 329.359375 402.125 329.359375 C 415.03125 329.359375 425.589844 318.804688 425.589844 305.90625 C 425.589844 293.007812 415.03125 282.453125 402.125 282.453125 Z M 402.125 317.632812 C 395.671875 317.632812 390.394531 312.355469 390.394531 305.90625 C 390.394531 299.457031 395.671875 294.179688 402.125 294.179688 C 408.578125 294.179688 413.855469 299.457031 413.855469 305.90625 C 413.855469 312.355469 408.578125 317.632812 402.125 317.632812 Z M 402.125 317.632812 " fill-opacity="1" fill-rule="nonzero"/></svg>