<svg xmlns="http://www.w3.org/2000/svg" xmlns:xlink="http://www.w3.org/1999/xlink" width="794" zoomAndPan="magnify" viewBox="0 0 594.95996 842.24997" height="1123" preserveAspectRatio="xMidYMid meet" version="1.0"><defs><clipPath id="d17fc60242"><path d="M 0.246094 0 L 594.675781 0 L 594.675781 841.5 L 0.246094 841.5 Z M 0.246094 0 " clip-rule="nonzero"/></clipPath><clipPath id="bebe30f8e9"><path d="M 76.675781 199.628906 L 518.78125 199.628906 L 518.78125 641.734375 L 76.675781 641.734375 Z M 76.675781 199.628906 " clip-rule="nonzero"/></clipPath></defs><g clip-path="url(#d17fc60242)"><path fill="#ffffff" d="M 0.246094 0 L 595.214844 0 L 595.214844 841.5 L 0.246094 841.5 Z M 0.246094 0 " fill-opacity="1" fill-rule="nonzero"/><path fill="#ffffff" d="M 0.246094 0 L 595.214844 0 L 595.214844 841.5 L 0.246094 841.5 Z M 0.246094 0 " fill-opacity="1" fill-rule="nonzero"/></g><g clip-path="url(#bebe30f8e9)"><path fill="#222831" d="M 481.917969 426.832031 C 484.511719 434.160156 491.488281 439.433594 499.691406 439.433594 C 510.09375 439.433594 518.558594 430.972656 518.558594 420.570312 C 518.558594 410.167969 510.09375 401.703125 499.691406 401.703125 C 491.488281 401.703125 484.511719 406.980469 481.917969 414.308594 L 379.023438 414.308594 C 378.023438 401.195312 373.917969 388.941406 367.433594 378.28125 L 446.636719 378.28125 C 450.097656 378.28125 452.898438 375.480469 452.898438 372.019531 L 452.898438 302.898438 L 476.375 302.898438 C 478.964844 310.226562 485.945312 315.5 494.148438 315.5 C 504.550781 315.5 513.011719 307.039062 513.011719 296.636719 C 513.011719 286.234375 504.550781 277.769531 494.148438 277.769531 C 485.945312 277.769531 478.964844 283.042969 476.375 290.375 L 446.636719 290.375 C 443.179688 290.375 440.375 293.175781 440.375 296.636719 L 440.375 365.757812 L 358.078125 365.757812 C 343.128906 349.285156 321.558594 338.925781 297.617188 338.925781 C 252.597656 338.925781 215.96875 375.550781 215.96875 420.570312 C 215.96875 465.589844 252.597656 502.214844 297.617188 502.214844 C 321.558594 502.214844 343.128906 491.855469 358.078125 475.378906 L 440.378906 475.378906 L 440.378906 544.503906 C 440.378906 547.960938 443.179688 550.761719 446.640625 550.761719 L 476.375 550.761719 C 478.964844 558.09375 485.945312 563.367188 494.148438 563.367188 C 504.550781 563.367188 513.015625 554.90625 513.015625 544.503906 C 513.015625 534.101562 504.550781 525.636719 494.148438 525.636719 C 485.945312 525.636719 478.964844 530.910156 476.375 538.242188 L 452.902344 538.242188 L 452.902344 469.117188 C 452.902344 465.660156 450.097656 462.855469 446.640625 462.855469 L 367.433594 462.855469 C 373.914062 452.195312 378.023438 439.941406 379.023438 426.832031 Z M 494.148438 290.292969 C 497.648438 290.292969 500.492188 293.136719 500.492188 296.636719 C 500.492188 300.132812 497.648438 302.976562 494.148438 302.976562 C 490.652344 302.976562 487.808594 300.132812 487.808594 296.636719 C 487.808594 293.136719 490.652344 290.292969 494.148438 290.292969 Z M 494.148438 538.160156 C 497.648438 538.160156 500.492188 541.007812 500.492188 544.503906 C 500.492188 548 497.648438 550.84375 494.148438 550.84375 C 490.652344 550.84375 487.808594 548 487.808594 544.503906 C 487.808594 541.007812 490.652344 538.160156 494.148438 538.160156 Z M 499.691406 414.226562 C 503.191406 414.226562 506.035156 417.074219 506.035156 420.570312 C 506.035156 424.066406 503.191406 426.910156 499.691406 426.910156 C 496.195312 426.910156 493.351562 424.066406 493.351562 420.570312 C 493.351562 417.074219 496.195312 414.226562 499.691406 414.226562 Z M 341.734375 414.308594 C 341.25 402.738281 339.425781 391.941406 336.539062 382.386719 C 341.855469 381.011719 346.875 379.335938 351.542969 377.398438 C 359.808594 387.703125 365.1875 400.417969 366.441406 414.308594 Z M 291.355469 485.644531 C 285.839844 483.113281 280.496094 477.359375 276.136719 469.003906 C 281.054688 468.308594 286.152344 467.863281 291.355469 467.660156 Z M 291.355469 455.128906 C 284.449219 455.382812 277.695312 456.046875 271.21875 457.101562 C 268.425781 448.480469 266.546875 438.269531 266.039062 426.832031 L 291.355469 426.832031 Z M 266.039062 414.308594 C 266.527344 403.273438 268.289062 393.378906 270.921875 384.953125 C 277.484375 386.035156 284.335938 386.714844 291.355469 386.972656 L 291.355469 414.308594 Z M 275.683594 373.035156 C 280.121094 364.195312 285.644531 358.113281 291.355469 355.496094 L 291.355469 374.445312 C 285.988281 374.234375 280.738281 373.765625 275.683594 373.035156 Z M 303.878906 355.496094 C 309.585938 358.113281 315.109375 364.195312 319.550781 373.035156 C 314.496094 373.765625 309.246094 374.234375 303.878906 374.441406 Z M 323.996094 356.691406 C 330.578125 359.417969 336.648438 363.132812 342.023438 367.652344 C 338.882812 368.757812 335.578125 369.734375 332.144531 370.585938 C 329.777344 365.34375 327.042969 360.675781 323.996094 356.691406 Z M 263.089844 370.585938 C 259.652344 369.734375 256.347656 368.757812 253.210938 367.652344 C 258.585938 363.132812 264.652344 359.417969 271.234375 356.691406 C 268.191406 360.675781 265.453125 365.34375 263.089844 370.585938 Z M 258.695312 382.386719 C 255.804688 391.941406 253.984375 402.738281 253.5 414.308594 L 228.789062 414.308594 C 230.042969 400.417969 235.421875 387.703125 243.691406 377.398438 C 248.359375 379.335938 253.378906 381.007812 258.695312 382.386719 Z M 253.5 426.832031 C 254 438.761719 255.921875 449.875 258.972656 459.648438 C 253.769531 460.984375 248.847656 462.597656 244.261719 464.46875 C 235.664062 454.035156 230.074219 441.046875 228.789062 426.832031 Z M 263.484375 471.421875 C 265.757812 476.3125 268.359375 480.6875 271.234375 484.449219 C 264.988281 481.859375 259.199219 478.378906 254.03125 474.167969 C 257.046875 473.136719 260.207031 472.222656 263.484375 471.421875 Z M 303.878906 485.644531 L 303.878906 467.660156 C 309.082031 467.863281 314.175781 468.308594 319.09375 469.003906 C 314.734375 477.359375 309.390625 483.113281 303.878906 485.644531 Z M 331.746094 471.421875 C 335.027344 472.222656 338.1875 473.136719 341.203125 474.167969 C 336.03125 478.378906 330.246094 481.859375 323.996094 484.445312 C 326.875 480.6875 329.476562 476.3125 331.746094 471.421875 Z M 303.878906 455.128906 L 303.878906 426.832031 L 329.195312 426.832031 C 328.6875 438.269531 326.808594 448.480469 324.011719 457.101562 C 317.539062 456.046875 310.785156 455.382812 303.878906 455.128906 Z M 303.878906 414.308594 L 303.878906 386.972656 C 310.894531 386.714844 317.746094 386.035156 324.308594 384.953125 C 326.941406 393.378906 328.703125 403.273438 329.195312 414.308594 Z M 350.96875 464.46875 C 346.386719 462.597656 341.460938 460.984375 336.261719 459.648438 C 339.3125 449.875 341.234375 438.761719 341.734375 426.832031 L 366.441406 426.832031 C 365.160156 441.046875 359.570312 454.035156 350.96875 464.46875 Z M 416.339844 569.53125 L 416.339844 555.421875 C 416.339844 553.757812 415.679688 552.164062 414.503906 550.992188 C 413.328125 549.816406 411.738281 549.160156 410.078125 549.160156 C 410.074219 549.160156 410.074219 549.160156 410.074219 549.160156 L 303.878906 549.242188 L 303.878906 525.480469 C 303.878906 522.023438 301.074219 519.21875 297.617188 519.21875 C 243.222656 519.21875 198.96875 474.964844 198.96875 420.570312 C 198.96875 366.175781 243.222656 321.921875 297.617188 321.921875 C 301.074219 321.921875 303.878906 319.117188 303.878906 315.660156 L 303.878906 291.898438 L 410.074219 291.980469 C 410.074219 291.980469 410.074219 291.980469 410.078125 291.980469 C 411.738281 291.980469 413.328125 291.320312 414.503906 290.148438 C 415.679688 288.972656 416.339844 287.378906 416.339844 285.71875 L 416.339844 271.609375 C 423.667969 269.015625 428.941406 262.039062 428.941406 253.835938 C 428.941406 243.433594 420.480469 234.96875 410.078125 234.96875 C 399.675781 234.96875 391.210938 243.433594 391.210938 253.835938 C 391.210938 262.039062 396.488281 269.015625 403.816406 271.609375 L 403.816406 279.453125 L 303.878906 279.375 L 303.878906 256.566406 L 356.398438 256.636719 C 356.398438 256.636719 356.402344 256.636719 356.40625 256.636719 C 358.0625 256.636719 359.65625 255.980469 360.828125 254.808594 C 362.007812 253.632812 362.667969 252.039062 362.667969 250.375 L 362.667969 236.265625 C 369.996094 233.675781 375.269531 226.695312 375.269531 218.492188 C 375.269531 208.089844 366.808594 199.628906 356.40625 199.628906 C 346.003906 199.628906 337.539062 208.089844 337.539062 218.492188 C 337.539062 226.695312 342.816406 233.675781 350.144531 236.265625 L 350.144531 244.105469 L 303.878906 244.042969 L 303.878906 205.886719 C 303.878906 202.429688 301.074219 199.628906 297.617188 199.628906 L 276.148438 199.628906 C 264.921875 199.628906 255.785156 208.761719 255.785156 219.992188 C 255.785156 236.96875 246.023438 251.558594 230.308594 258.066406 C 214.589844 264.574219 197.371094 261.164062 185.367188 249.160156 C 181.519531 245.3125 176.40625 243.195312 170.964844 243.195312 C 165.527344 243.195312 160.414062 245.3125 156.566406 249.160156 L 126.207031 279.519531 C 122.359375 283.367188 120.242188 288.480469 120.242188 293.917969 C 120.242188 299.359375 122.359375 304.472656 126.207031 308.320312 C 138.226562 320.339844 141.65625 337.566406 135.148438 353.273438 C 128.640625 368.980469 114.039062 378.738281 97.039062 378.738281 C 85.808594 378.738281 76.675781 387.875 76.675781 399.101562 L 76.675781 442.035156 C 76.675781 453.265625 85.808594 462.398438 97.039062 462.398438 C 114.015625 462.398438 128.605469 472.164062 135.113281 487.878906 C 141.625 503.597656 138.210938 520.816406 126.207031 532.820312 C 122.359375 536.664062 120.242188 541.78125 120.242188 547.21875 C 120.242188 552.660156 122.359375 557.773438 126.207031 561.621094 L 156.566406 591.980469 C 164.507812 599.917969 177.425781 599.921875 185.367188 591.980469 C 197.371094 579.976562 214.59375 576.5625 230.308594 583.070312 C 246.023438 589.582031 255.785156 604.171875 255.785156 621.148438 C 255.785156 632.375 264.921875 641.511719 276.148438 641.511719 L 297.617188 641.511719 C 301.074219 641.511719 303.878906 638.707031 303.878906 635.25 L 303.878906 597.097656 L 350.144531 597.03125 L 350.144531 604.871094 C 342.816406 607.464844 337.539062 614.441406 337.539062 622.648438 C 337.539062 633.050781 346.003906 641.511719 356.40625 641.511719 C 366.808594 641.511719 375.269531 633.050781 375.269531 622.648438 C 375.269531 614.441406 369.996094 607.464844 362.667969 604.871094 L 362.667969 590.761719 C 362.667969 589.101562 362.007812 587.507812 360.828125 586.332031 C 359.65625 585.160156 358.0625 584.5 356.40625 584.5 C 356.402344 584.5 356.398438 584.5 356.398438 584.5 L 303.878906 584.574219 L 303.878906 561.761719 L 403.816406 561.6875 L 403.816406 569.53125 C 396.488281 572.121094 391.210938 579.101562 391.210938 587.304688 C 391.210938 597.707031 399.675781 606.167969 410.078125 606.167969 C 420.480469 606.167969 428.941406 597.707031 428.941406 587.304688 C 428.941406 579.101562 423.667969 572.121094 416.339844 569.53125 Z M 410.078125 247.492188 C 413.574219 247.492188 416.417969 250.339844 416.417969 253.835938 C 416.417969 257.332031 413.574219 260.175781 410.078125 260.175781 C 406.582031 260.175781 403.734375 257.332031 403.734375 253.835938 C 403.734375 250.339844 406.582031 247.492188 410.078125 247.492188 Z M 356.40625 212.148438 C 359.902344 212.148438 362.746094 214.996094 362.746094 218.492188 C 362.746094 221.988281 359.902344 224.835938 356.40625 224.835938 C 352.910156 224.835938 350.0625 221.988281 350.0625 218.492188 C 350.0625 214.996094 352.910156 212.148438 356.40625 212.148438 Z M 356.40625 628.988281 C 352.910156 628.988281 350.0625 626.144531 350.0625 622.648438 C 350.0625 619.148438 352.910156 616.304688 356.40625 616.304688 C 359.902344 616.304688 362.746094 619.148438 362.746094 622.648438 C 362.746094 626.144531 359.902344 628.988281 356.40625 628.988281 Z M 291.355469 628.988281 L 276.148438 628.988281 C 271.824219 628.988281 268.308594 625.46875 268.308594 621.148438 C 268.308594 599.011719 255.582031 579.988281 235.101562 571.5 C 228.226562 568.65625 221.136719 567.265625 214.152344 567.265625 C 200.320312 567.265625 186.914062 572.722656 176.511719 583.125 C 173.453125 586.179688 168.480469 586.179688 165.421875 583.125 L 135.0625 552.765625 C 133.582031 551.285156 132.765625 549.316406 132.765625 547.21875 C 132.765625 545.125 133.582031 543.15625 135.0625 541.675781 C 150.714844 526.023438 155.167969 503.570312 146.683594 483.085938 C 138.199219 462.601562 119.175781 449.878906 97.039062 449.878906 C 92.714844 449.878906 89.199219 446.359375 89.199219 442.035156 L 89.199219 399.101562 C 89.199219 394.78125 92.714844 391.261719 97.039062 391.261719 C 119.199219 391.261719 138.238281 378.542969 146.71875 358.066406 C 155.199219 337.589844 150.734375 315.136719 135.0625 299.464844 C 133.582031 297.984375 132.765625 296.015625 132.765625 293.917969 C 132.765625 291.824219 133.582031 289.855469 135.0625 288.375 L 165.421875 258.015625 C 166.902344 256.535156 168.871094 255.71875 170.964844 255.71875 C 173.0625 255.71875 175.03125 256.535156 176.511719 258.015625 C 192.164062 273.667969 214.617188 278.121094 235.101562 269.636719 C 255.585938 261.152344 268.308594 242.128906 268.308594 219.992188 C 268.308594 215.667969 271.828125 212.148438 276.148438 212.148438 L 291.355469 212.148438 L 291.355469 309.570312 C 232.957031 312.832031 186.445312 361.371094 186.445312 420.570312 C 186.445312 479.769531 232.957031 528.308594 291.355469 531.570312 Z M 410.078125 593.644531 C 406.582031 593.644531 403.734375 590.800781 403.734375 587.304688 C 403.734375 583.808594 406.582031 580.960938 410.078125 580.960938 C 413.574219 580.960938 416.417969 583.808594 416.417969 587.304688 C 416.417969 590.800781 413.574219 593.644531 410.078125 593.644531 Z M 410.078125 593.644531 " fill-opacity="1" fill-rule="nonzero"/></g></svg>