<svg xmlns="http://www.w3.org/2000/svg" xmlns:xlink="http://www.w3.org/1999/xlink" width="794" zoomAndPan="magnify" viewBox="0 0 594.95996 842.24997" height="1123" preserveAspectRatio="xMidYMid meet" version="1.0"><defs><clipPath id="516ac231e0"><path d="M 0.246094 0 L 594.675781 0 L 594.675781 841.5 L 0.246094 841.5 Z M 0.246094 0 " clip-rule="nonzero"/></clipPath><clipPath id="85fb5175a8"><path d="M 90.828125 213.78125 L 504.457031 213.78125 L 504.457031 627.410156 L 90.828125 627.410156 Z M 90.828125 213.78125 " clip-rule="nonzero"/></clipPath></defs><g clip-path="url(#516ac231e0)"><path fill="#ffffff" d="M 0.246094 0 L 595.214844 0 L 595.214844 841.5 L 0.246094 841.5 Z M 0.246094 0 " fill-opacity="1" fill-rule="nonzero"/><path fill="#ffffff" d="M 0.246094 0 L 595.214844 0 L 595.214844 841.5 L 0.246094 841.5 Z M 0.246094 0 " fill-opacity="1" fill-rule="nonzero"/></g><g clip-path="url(#85fb5175a8)"><path fill="#222831" d="M 497.90625 387.78125 L 441.070312 383.457031 C 439.335938 376.695312 437.132812 370.160156 434.535156 363.875 C 431.890625 357.507812 428.796875 351.324219 425.273438 345.367188 L 462.640625 301.851562 C 464.914062 299.191406 464.726562 295.253906 462.296875 292.8125 L 425.355469 255.871094 C 422.761719 253.277344 418.542969 253.265625 415.945312 255.851562 L 372.800781 292.894531 C 366.84375 289.378906 360.664062 286.277344 354.292969 283.632812 C 348.007812 281.027344 341.472656 278.835938 334.710938 277.097656 L 330.367188 219.929688 C 330.109375 216.445312 327.183594 213.78125 323.730469 213.78125 L 271.484375 213.78125 C 267.855469 213.78125 264.910156 216.675781 264.816406 220.273438 L 260.496094 277.109375 C 253.742188 278.84375 247.199219 281.035156 240.914062 283.640625 C 234.480469 286.308594 228.296875 289.402344 222.394531 292.886719 L 178.898438 255.539062 C 176.238281 253.265625 172.300781 253.453125 169.859375 255.882812 L 132.929688 292.824219 C 130.332031 295.417969 130.324219 299.628906 132.90625 302.234375 L 169.953125 345.367188 C 166.4375 351.324219 163.335938 357.507812 160.691406 363.875 C 158.085938 370.160156 155.890625 376.707031 154.15625 383.457031 L 97 387.800781 C 93.496094 388.070312 90.828125 390.996094 90.828125 394.449219 L 90.828125 446.695312 C 90.828125 450.324219 93.722656 453.269531 97.320312 453.363281 L 154.15625 457.683594 C 155.890625 464.4375 158.085938 470.980469 160.691406 477.265625 C 163.324219 483.636719 166.4375 489.820312 169.953125 495.773438 L 132.585938 539.292969 C 130.3125 541.949219 130.5 545.890625 132.929688 548.328125 L 169.871094 585.273438 C 172.464844 587.867188 176.683594 587.878906 179.28125 585.292969 L 222.425781 548.246094 C 228.371094 551.761719 234.554688 554.863281 240.921875 557.5 C 247.210938 560.105469 253.742188 562.296875 260.503906 564.035156 L 264.847656 621.199219 C 265.105469 624.707031 268.03125 627.375 271.484375 627.375 L 323.730469 627.375 C 327.359375 627.375 330.304688 624.476562 330.398438 620.878906 L 334.722656 564.035156 C 341.484375 562.296875 348.015625 560.09375 354.3125 557.5 C 360.683594 554.863281 366.867188 551.761719 372.8125 548.246094 L 416.328125 585.625 C 418.988281 587.898438 422.925781 587.710938 425.367188 585.28125 L 462.308594 548.339844 C 464.902344 545.746094 464.914062 541.535156 462.328125 538.929688 L 425.285156 495.785156 C 428.796875 489.828125 431.902344 483.644531 434.546875 477.277344 C 437.152344 470.992188 439.34375 464.445312 441.082031 457.695312 L 498.238281 453.351562 C 501.742188 453.09375 504.410156 450.167969 504.410156 446.714844 L 504.410156 394.46875 C 504.398438 390.820312 501.503906 387.875 497.90625 387.78125 Z M 491.0625 440.519531 L 435.25 444.78125 C 432.398438 444.988281 429.90625 447.035156 429.253906 449.972656 C 427.566406 457.582031 425.199219 465.003906 422.234375 472.160156 C 419.253906 479.34375 415.710938 486.167969 411.65625 492.570312 C 409.917969 495 409.992188 498.390625 412.019531 500.757812 L 448.515625 543.253906 L 420.289062 571.480469 L 377.785156 534.992188 C 375.625 533.140625 372.417969 532.832031 369.894531 534.433594 C 363.414062 538.558594 356.484375 542.167969 349.195312 545.1875 C 342.1875 548.089844 334.917969 550.417969 327.472656 552.101562 C 324.453125 552.546875 322.035156 555.027344 321.796875 558.191406 L 317.558594 614.015625 L 277.660156 614.015625 L 273.398438 558.191406 C 273.191406 555.339844 271.144531 552.847656 268.207031 552.195312 C 260.597656 550.5 253.175781 548.144531 246.03125 545.175781 C 238.84375 542.199219 232.019531 538.652344 225.621094 534.609375 C 223.191406 532.871094 219.800781 532.945312 217.433594 534.972656 L 174.9375 571.46875 L 146.710938 543.242188 L 183.199219 500.746094 C 185.050781 498.585938 185.359375 495.382812 183.757812 492.859375 C 179.632812 486.367188 176.011719 479.449219 172.992188 472.148438 C 170.089844 465.140625 167.761719 457.878906 166.078125 450.4375 C 165.632812 447.417969 163.148438 444.996094 159.988281 444.761719 L 104.175781 440.519531 L 104.175781 400.621094 L 159.988281 396.363281 C 162.839844 396.15625 165.332031 394.109375 165.984375 391.171875 C 167.667969 383.5625 170.035156 376.136719 173.003906 368.984375 C 175.980469 361.796875 179.527344 354.972656 183.582031 348.574219 C 185.316406 346.144531 185.246094 342.753906 183.21875 340.382812 L 146.722656 297.890625 L 174.949219 269.664062 L 217.101562 305.863281 C 219.261719 307.980469 222.675781 308.425781 225.339844 306.730469 C 231.90625 302.554688 238.835938 298.933594 246.050781 295.945312 C 253.0625 293.039062 260.320312 290.714844 267.761719 289.027344 C 270.78125 288.585938 273.203125 286.101562 273.441406 282.9375 L 277.679688 227.117188 L 317.578125 227.117188 L 321.839844 282.9375 C 322.046875 285.792969 324.09375 288.285156 327.027344 288.9375 C 334.636719 290.621094 342.0625 292.988281 349.207031 295.957031 C 356.390625 298.933594 363.214844 302.480469 369.617188 306.535156 C 372.046875 308.269531 375.4375 308.199219 377.804688 306.171875 L 420.300781 269.675781 L 448.527344 297.898438 L 412.039062 340.394531 C 410.1875 342.554688 409.878906 345.761719 411.480469 348.285156 C 415.605469 354.765625 419.214844 361.695312 422.242188 368.992188 C 425.148438 376.003906 427.476562 383.261719 429.160156 390.714844 C 429.605469 393.734375 432.085938 396.15625 435.25 396.394531 L 491.0625 400.632812 Z M 297.613281 328.496094 C 272.1875 328.496094 249.171875 338.800781 232.507812 355.460938 C 215.851562 372.117188 205.542969 395.140625 205.542969 420.566406 C 205.542969 445.992188 215.851562 469.007812 232.507812 485.671875 C 249.164062 502.328125 272.1875 512.636719 297.613281 512.636719 C 323.039062 512.636719 346.054688 502.328125 362.71875 485.671875 C 379.375 469.015625 389.683594 445.992188 389.683594 420.566406 C 389.683594 395.140625 379.375 372.125 362.71875 355.460938 C 346.0625 338.792969 323.039062 328.496094 297.613281 328.496094 Z M 353.289062 476.242188 C 339.042969 490.492188 319.355469 499.300781 297.613281 499.300781 C 275.871094 499.300781 256.183594 490.492188 241.9375 476.242188 C 227.6875 461.996094 218.878906 442.308594 218.878906 420.566406 C 218.878906 398.824219 227.6875 379.136719 241.9375 364.890625 C 256.183594 350.640625 275.871094 341.832031 297.613281 341.832031 C 319.355469 341.832031 339.042969 350.640625 353.289062 364.890625 C 367.539062 379.136719 376.347656 398.824219 376.347656 420.566406 C 376.347656 442.308594 367.539062 461.996094 353.289062 476.242188 Z M 353.289062 476.242188 " fill-opacity="1" fill-rule="nonzero"/></g></svg>