<svg xmlns="http://www.w3.org/2000/svg" xmlns:xlink="http://www.w3.org/1999/xlink" width="794" zoomAndPan="magnify" viewBox="0 0 594.95996 842.24997" height="1123" preserveAspectRatio="xMidYMid meet" version="1.0"><defs><clipPath id="3bbac39ba2"><path d="M 0.246094 0 L 594.675781 0 L 594.675781 841.5 L 0.246094 841.5 Z M 0.246094 0 " clip-rule="nonzero"/></clipPath><clipPath id="73232116c3"><path d="M 117 212.164062 L 534 212.164062 L 534 628.792969 L 117 628.792969 Z M 117 212.164062 " clip-rule="nonzero"/></clipPath></defs><g clip-path="url(#3bbac39ba2)"><path fill="#ffffff" d="M 0.246094 0 L 595.214844 0 L 595.214844 841.5 L 0.246094 841.5 Z M 0.246094 0 " fill-opacity="1" fill-rule="nonzero"/><path fill="#ffffff" d="M 0.246094 0 L 595.214844 0 L 595.214844 841.5 L 0.246094 841.5 Z M 0.246094 0 " fill-opacity="1" fill-rule="nonzero"/></g><g clip-path="url(#73232116c3)"><path fill="#000000" d="M 277.335938 540.902344 C 261.96875 540.230469 235.628906 540.566406 222.652344 540.925781 C 213.855469 541.164062 206.972656 548.144531 206.972656 556.84375 C 206.972656 565.1875 213.496094 571.808594 222.484375 572.597656 C 227.3125 573.003906 236.800781 573.195312 246.792969 573.195312 C 258.644531 573.195312 271.242188 572.957031 277.550781 572.597656 C 287.351562 572.046875 293.207031 566.167969 293.207031 556.867188 C 293.207031 549.433594 287.636719 541.332031 277.335938 540.902344 Z M 276.953125 562.054688 C 265.625 562.703125 233.261719 562.941406 223.390625 562.078125 C 220.570312 561.839844 217.535156 560.097656 217.535156 556.820312 C 217.535156 553.832031 219.855469 551.515625 222.9375 551.441406 C 230.394531 551.226562 242.296875 551.035156 253.914062 551.035156 C 262.304688 551.035156 270.574219 551.132812 276.90625 551.417969 C 282.523438 551.65625 282.667969 556.773438 282.667969 556.820312 C 282.644531 559.929688 281.710938 561.769531 276.953125 562.054688 Z M 256.472656 320.324219 C 263.640625 321.328125 269.210938 321.6875 273.941406 321.6875 C 280.394531 321.6875 285.34375 320.996094 290.699219 320.253906 C 295.214844 319.632812 300.496094 315.402344 301.429688 308.804688 C 303.054688 297.304688 302.984375 292.882812 301.953125 280.40625 C 301.476562 274.621094 298.371094 270.679688 293.445312 269.53125 C 281.183594 266.734375 268.566406 266.519531 254.871094 268.886719 C 252.050781 269.363281 247.199219 271.226562 246.410156 278.207031 C 245.238281 288.703125 245.238281 294.867188 246.386719 309.59375 C 246.863281 315.496094 250.640625 319.511719 256.472656 320.324219 Z M 256.925781 279.378906 C 256.925781 279.332031 256.949219 279.285156 256.949219 279.234375 C 269.113281 277.15625 280.300781 277.347656 291.054688 279.761719 C 291.054688 279.761719 291.34375 280.144531 291.4375 281.292969 C 292.417969 293.195312 292.488281 296.757812 290.984375 307.34375 C 290.722656 309.28125 289.191406 309.832031 289.238281 309.832031 C 280.039062 311.121094 273.394531 312.054688 257.929688 309.902344 C 257.355469 309.832031 257.140625 309.6875 257.140625 309.6875 C 257.140625 309.664062 256.996094 309.449219 256.949219 308.78125 C 255.753906 293.839844 255.898438 288.582031 256.925781 279.378906 Z M 484.820312 497.277344 C 479.921875 497.300781 475.859375 499.382812 473.683594 503.351562 C 471.246094 507.75 471.53125 513.699219 474.402344 518.121094 C 476.71875 521.707031 480.351562 523.691406 484.511719 523.691406 C 484.84375 523.691406 485.179688 523.667969 485.539062 523.644531 C 493.6875 523.023438 497.847656 515.875 497.609375 509.46875 C 497.394531 503.445312 493.378906 497.351562 484.820312 497.277344 Z M 485.132812 518.386719 C 481.785156 518.625 479.875 516.832031 478.847656 515.253906 C 477.054688 512.503906 476.839844 508.5625 478.320312 505.882812 C 479.515625 503.707031 481.738281 502.5625 484.703125 502.5625 C 484.726562 502.5625 484.75 502.5625 484.796875 502.5625 C 490.175781 502.609375 492.230469 506.242188 492.351562 509.660156 C 492.46875 513.699219 490.054688 518.003906 485.132812 518.386719 Z M 529.183594 487.359375 C 512.976562 463.574219 487.664062 440.890625 474.972656 438.8125 C 472.035156 438.335938 469.8125 438.859375 468.1875 439.648438 C 461.542969 432.238281 453.367188 420.238281 444.789062 407.617188 C 424.613281 377.980469 402.003906 344.753906 377.914062 336.339844 C 377.722656 328.476562 377.195312 313.488281 376.597656 296.660156 C 375.90625 276.726562 375.164062 256.121094 374.902344 244.71875 C 374.46875 226.722656 362.449219 214.792969 344.234375 214.316406 C 262.757812 212.117188 222.792969 212.761719 147.148438 214.316406 C 131.613281 214.601562 120.472656 226.53125 120.09375 243.285156 C 117.820312 339.589844 116.601562 484.011719 118.945312 589.617188 C 119.207031 601.757812 131.421875 625.78125 149.730469 627.046875 C 168.800781 628.363281 199.011719 628.792969 229.558594 628.792969 C 277.167969 628.792969 325.570312 627.789062 333.933594 627.597656 C 350.140625 627.238281 368.113281 605.25 369.210938 589.710938 C 369.546875 584.859375 369.378906 569.945312 369.210938 554.121094 C 369.117188 545.875 369.019531 537.460938 369.046875 531.507812 C 370.144531 532.035156 371.195312 532.632812 372.246094 533.300781 C 372.03125 533.660156 371.769531 534.019531 371.578125 534.351562 C 370.265625 536.527344 368.996094 540.230469 370.359375 545.539062 C 374.304688 560.835938 398.945312 582.898438 420.480469 595.402344 C 425.546875 598.339844 431.09375 599.796875 436.851562 599.796875 C 444.953125 599.796875 453.464844 596.929688 461.660156 591.265625 C 477.363281 580.414062 489.699219 570.207031 500.476562 559.140625 C 514.816406 544.464844 525.742188 528.425781 531.238281 513.988281 C 534.941406 504.210938 534.203125 494.746094 529.183594 487.359375 Z M 333.601562 611.796875 C 272.125 613.136719 187.398438 613.828125 150.851562 611.296875 C 145.761719 610.9375 140.074219 603.957031 137.039062 597.265625 C 140.433594 598.363281 144.160156 598.84375 147.984375 599.035156 C 169.113281 600.132812 200.445312 600.5625 233.144531 600.5625 C 274.015625 600.5625 317.035156 599.871094 344.929688 598.9375 C 346.625 598.890625 348.15625 598.675781 349.613281 598.414062 C 345.261719 605.273438 338.261719 611.703125 333.601562 611.796875 Z M 353.535156 584.5 C 351.789062 587.082031 349.015625 588.277344 344.523438 588.421875 C 294.523438 590.117188 195.761719 590.976562 148.511719 588.515625 C 141.078125 588.132812 136.824219 586.914062 134.648438 582.445312 C 132.496094 477.773438 133.714844 337.726562 135.9375 243.644531 C 136.011719 240.511719 137.0625 230.28125 147.484375 230.066406 C 222.867188 228.511719 262.710938 227.890625 343.804688 230.066406 C 356.113281 230.402344 358.886719 238.410156 359.054688 245.054688 C 359.316406 256.574219 360.058594 277.226562 360.75 297.1875 C 361.277344 312.222656 361.777344 326.613281 362.019531 334.882812 C 355.898438 336.148438 350.546875 339.636719 346.816406 344.730469 C 346.746094 318.769531 346.386719 275.050781 345.933594 261.164062 C 345.621094 252.273438 339 245.222656 330.492188 244.769531 C 261.226562 241.109375 215.410156 242.042969 163.902344 244.769531 C 155.441406 245.222656 148.796875 252.25 148.460938 261.140625 C 145.953125 328.546875 144.710938 430.542969 147.578125 506.457031 C 148.269531 524.527344 158.691406 527.46875 168.800781 527.921875 C 184.671875 528.664062 207.019531 528.925781 229.894531 528.925781 C 269.808594 528.925781 311.324219 528.160156 322.820312 527.945312 C 326.789062 527.875 330.085938 527.15625 332.929688 525.796875 C 333.574219 525.484375 334.125 525.054688 334.554688 524.550781 C 337.566406 524.980469 340.507812 525.339844 343.328125 525.675781 C 346.863281 526.105469 350.140625 526.488281 353.222656 526.964844 C 353.152344 532.894531 353.246094 543.316406 353.367188 554.238281 C 353.484375 565.425781 353.628906 577.734375 353.535156 584.5 Z M 214.789062 386.203125 C 230.277344 400.183594 250.257812 418.542969 269.59375 436.277344 C 270.261719 436.898438 270.929688 437.496094 271.601562 438.117188 C 260.75 454.347656 264.40625 475.789062 270.09375 483.34375 C 281.878906 499 295.765625 510.734375 310.464844 517.667969 C 278.914062 518.21875 206.304688 519.175781 169.328125 517.453125 C 161.703125 517.09375 158.546875 515.972656 158.167969 506.097656 C 155.296875 430.445312 156.542969 328.761719 159.050781 261.570312 C 159.171875 258.105469 161.464844 255.476562 164.476562 255.308594 C 215.625 252.609375 261.132812 251.652344 329.941406 255.308594 C 332.976562 255.476562 335.273438 258.105469 335.367188 261.546875 C 335.871094 276.273438 336.230469 324.769531 336.253906 349.652344 C 333.671875 350.441406 331.136719 351.613281 328.796875 353.167969 C 323.847656 356.441406 320.238281 361.03125 318.351562 366.125 C 311.445312 366.960938 305.253906 370.257812 300.734375 375.636719 C 299.039062 377.667969 297.628906 379.890625 296.578125 382.234375 C 282.332031 369.039062 264.742188 353.046875 253.652344 343.128906 C 235.796875 327.160156 217.800781 330.792969 208.644531 340.90625 C 195.808594 355.128906 202.238281 374.847656 214.789062 386.203125 Z M 345.214844 510.042969 C 341.367188 509.589844 337.398438 509.109375 333.289062 508.464844 C 315.363281 505.621094 297.414062 493.335938 282.761719 473.878906 C 281.042969 471.464844 278.222656 459.105469 283.480469 449.042969 C 289.574219 454.636719 295.359375 459.941406 300.570312 464.699219 C 302.097656 466.085938 304.011719 466.777344 305.921875 466.777344 C 308.074219 466.777344 310.199219 465.917969 311.777344 464.222656 C 314.742188 460.992188 314.527344 456.023438 311.277344 453.058594 C 302.21875 444.789062 291.484375 434.941406 280.324219 424.683594 C 260.964844 406.925781 240.960938 388.542969 225.421875 374.511719 C 216.101562 366.097656 215.839844 356.5625 220.40625 351.519531 C 224.300781 347.214844 232.570312 345.519531 243.0625 354.914062 C 257.402344 367.722656 282.617188 390.742188 297.316406 404.582031 C 299.921875 407.046875 303.890625 407.425781 306.949219 405.539062 C 310.007812 403.652344 311.394531 399.945312 310.34375 396.503906 C 309.316406 393.15625 310.320312 388.855469 312.878906 385.820312 C 314.742188 383.621094 318.160156 381.109375 323.871094 381.851562 C 326.117188 382.136719 328.390625 381.445312 330.085938 379.964844 C 331.785156 378.480469 332.789062 376.328125 332.789062 374.058594 C 332.8125 371.191406 334.605469 368.320312 337.589844 366.339844 C 340.625 364.332031 344.1875 363.683594 346.699219 364.710938 C 348.871094 365.597656 351.335938 365.476562 353.414062 364.378906 C 355.492188 363.277344 356.976562 361.320312 357.453125 359.023438 C 358.503906 354.101562 362.328125 349.460938 368.566406 350.25 C 388.308594 352.761719 413.359375 389.597656 431.664062 416.488281 C 440.582031 429.609375 448.492188 441.179688 455.613281 449.304688 C 433.554688 467.566406 400.1875 498.617188 381.761719 520.609375 C 370.359375 513.054688 358.097656 511.597656 345.214844 510.042969 Z M 393.375 553.425781 C 388.859375 548.289062 386.132812 544.03125 385.679688 541.667969 C 398.394531 521.492188 447.917969 475 473.898438 454.898438 C 476.144531 455.878906 479.683594 458.125 483.960938 461.496094 C 454.347656 490.632812 428.703125 517.046875 399.304688 547.308594 Z M 516.394531 508.371094 C 511.710938 520.65625 501.765625 535.140625 489.101562 548.121094 C 479.039062 558.421875 467.445312 568.007812 452.601562 578.285156 C 443.617188 584.5 435.273438 585.695312 428.464844 581.75 C 417.5625 575.417969 408.050781 567.910156 400.738281 561.003906 L 406.929688 554.621094 C 436.492188 524.167969 462.234375 497.683594 492.039062 468.355469 C 499.664062 475.40625 508.339844 484.847656 516.085938 496.226562 C 518.140625 499.285156 518.257812 503.492188 516.394531 508.371094 Z M 230.945312 308.804688 C 232.570312 297.304688 232.5 292.882812 231.472656 280.40625 C 230.992188 274.621094 227.886719 270.679688 222.960938 269.53125 C 210.699219 266.734375 198.082031 266.519531 184.386719 268.886719 C 181.566406 269.363281 176.714844 271.226562 175.925781 278.207031 C 174.753906 288.703125 174.753906 294.867188 175.902344 309.59375 C 176.378906 315.496094 180.132812 319.488281 185.964844 320.300781 C 193.132812 321.304688 198.703125 321.664062 203.433594 321.664062 C 209.886719 321.664062 214.835938 320.96875 220.191406 320.230469 C 224.707031 319.609375 229.988281 315.378906 230.945312 308.804688 Z M 218.730469 309.808594 C 209.53125 311.097656 202.886719 312.03125 187.421875 309.878906 C 186.847656 309.808594 186.632812 309.664062 186.632812 309.664062 C 186.632812 309.640625 186.488281 309.425781 186.441406 308.757812 C 185.269531 293.816406 185.390625 288.558594 186.417969 279.355469 C 186.417969 279.308594 186.441406 279.257812 186.441406 279.210938 C 198.605469 277.132812 209.792969 277.324219 220.546875 279.738281 C 220.546875 279.738281 220.835938 280.121094 220.929688 281.265625 C 221.910156 293.171875 221.980469 296.734375 220.476562 307.320312 C 220.191406 309.257812 218.683594 309.808594 218.730469 309.808594 C 218.707031 309.808594 218.707031 309.808594 218.730469 309.808594 Z M 175.351562 486.164062 L 177.695312 486.164062 C 180.609375 486.164062 182.976562 483.796875 182.976562 480.90625 C 182.976562 478.011719 180.609375 475.648438 177.695312 475.648438 L 175.351562 475.648438 C 172.433594 475.648438 170.070312 478.011719 170.070312 480.90625 C 170.070312 483.796875 172.433594 486.164062 175.351562 486.164062 Z M 178.339844 493.859375 L 174.753906 493.859375 C 171.835938 493.859375 169.472656 496.226562 169.472656 499.121094 C 169.472656 502.035156 171.835938 504.378906 174.753906 504.378906 L 178.339844 504.378906 C 181.253906 504.378906 183.621094 502.011719 183.621094 499.121094 C 183.621094 496.203125 181.253906 493.859375 178.339844 493.859375 Z M 175.660156 468.667969 L 177.238281 468.667969 C 180.15625 468.667969 182.519531 466.300781 182.519531 463.410156 C 182.519531 460.492188 180.15625 458.148438 177.238281 458.148438 L 175.660156 458.148438 C 172.746094 458.148438 170.378906 460.515625 170.378906 463.410156 C 170.355469 466.300781 172.722656 468.667969 175.660156 468.667969 Z M 175.660156 468.667969 " fill-opacity="1" fill-rule="nonzero"/></g></svg>