<svg xmlns="http://www.w3.org/2000/svg" xmlns:xlink="http://www.w3.org/1999/xlink" width="794" zoomAndPan="magnify" viewBox="0 0 594.95996 842.24997" height="1123" preserveAspectRatio="xMidYMid meet" version="1.0"><defs><clipPath id="fab0ce0e27"><path d="M 0.246094 0 L 594.675781 0 L 594.675781 841.5 L 0.246094 841.5 Z M 0.246094 0 " clip-rule="nonzero"/></clipPath><clipPath id="7407a4a5a8"><path d="M 95 281 L 503.765625 281 L 503.765625 650.644531 L 95 650.644531 Z M 95 281 " clip-rule="nonzero"/></clipPath></defs><g clip-path="url(#fab0ce0e27)"><path fill="#ffffff" d="M 0.246094 0 L 595.214844 0 L 595.214844 841.5 L 0.246094 841.5 Z M 0.246094 0 " fill-opacity="1" fill-rule="nonzero"/><path fill="#ffffff" d="M 0.246094 0 L 595.214844 0 L 595.214844 841.5 L 0.246094 841.5 Z M 0.246094 0 " fill-opacity="1" fill-rule="nonzero"/></g><g clip-path="url(#7407a4a5a8)"><path fill="#000000" d="M 503.765625 631.191406 C 502.378906 625.316406 503.179688 619.566406 502.828125 613.632812 C 500.921875 603.542969 498.390625 593.5 496.339844 583.433594 C 480.105469 544.566406 443.808594 569.730469 443.417969 543.730469 C 457.265625 535.511719 465.917969 519.226562 465.992188 503.285156 C 468.589844 501.75 471.65625 500.019531 472.667969 496.996094 C 475.03125 485.546875 476.890625 473.0625 471 462.503906 C 472.105469 458.753906 469.824219 454.382812 465.574219 454.382812 C 464.503906 453.019531 463.394531 451.695312 462.21875 450.445312 C 463.695312 446.898438 459.710938 443.035156 456.269531 444.929688 C 454.832031 443.761719 453.359375 442.648438 451.847656 441.578125 C 452.945312 439.039062 449.609375 436.570312 447.550781 438.464844 C 424.984375 423.667969 391 432.558594 375.453125 453.769531 C 370.238281 462.039062 364.4375 471.25 366.136719 481.414062 C 366.734375 487.890625 367.601562 496.398438 374.277344 499.59375 C 375.632812 506.683594 374.832031 514.457031 378.109375 520.976562 C 382.128906 527.773438 386.476562 535.078125 393.664062 538.910156 C 393.4375 539 393.140625 539.117188 392.914062 539.195312 C 393.460938 539.027344 393.453125 539.035156 393.871094 539.035156 C 394.058594 539.148438 394.246094 539.261719 394.433594 539.375 C 394.3125 539.417969 394.164062 539.449219 393.976562 539.492188 C 392.863281 539.753906 394.898438 539.785156 394.140625 540.617188 C 396.417969 542.792969 393.5 541.679688 392.375 542.390625 C 392.234375 542.515625 392.636719 542.882812 392.316406 542.941406 C 391.417969 543.039062 390.976562 543.09375 391.441406 543.828125 C 381.105469 539.613281 368.605469 541.777344 358.605469 539.34375 C 344.828125 536.679688 333.652344 525.496094 335.03125 510.714844 C 335.1875 504.714844 338.789062 499.390625 337.835938 493.324219 C 355.84375 483.554688 369.382812 465.160156 370.5 444.300781 C 372.414062 443.246094 376.007812 443.171875 375.933594 440.347656 C 377.234375 435.035156 380.691406 430.507812 382.390625 425.238281 C 388.851562 413.480469 391.835938 405.71875 391.859375 391.902344 C 392.242188 381.695312 387.765625 372.160156 383.46875 363.164062 C 377.496094 345.664062 360.972656 332.164062 344.355469 325.070312 C 346.488281 320.570312 338.023438 305.0625 334.703125 301.269531 C 322.597656 290.15625 307.5625 279.765625 290.371094 281.75 C 275.605469 283.203125 261.757812 291.015625 254.011719 303.8125 C 248.570312 309.164062 243.691406 322.554688 247.5625 329.558594 C 242.621094 334.910156 236.792969 339.363281 232.441406 345.203125 C 229.21875 349.414062 226.566406 354.152344 222.9375 358.007812 C 210.09375 371.164062 204.660156 391.238281 208.238281 409.222656 C 209.683594 418.703125 213.46875 427.96875 219.496094 435.484375 C 221.328125 437.371094 222.839844 440.558594 226.058594 439.609375 C 226.246094 444.792969 226.980469 449.980469 228.410156 454.972656 C 218.117188 440.574219 201.953125 428.171875 183.628906 428.210938 C 161.019531 427.339844 136.898438 440.183594 129.105469 462.179688 C 124.046875 470.734375 125.066406 494.289062 134.464844 499.429688 C 136.785156 514.308594 145.609375 528.347656 157 538.070312 C 156.066406 542.621094 151.082031 544.148438 148.835938 547.875 C 132.570312 559.902344 118.605469 550.71875 103.179688 577.976562 C 91.601562 596.859375 95.351562 619.746094 97.964844 640.507812 C 98.300781 643.238281 100.605469 645.386719 103.441406 645.433594 C 111.714844 645.605469 119.984375 645.941406 128.261719 646.089844 C 157.515625 645.828125 186.773438 645.238281 215.925781 648.082031 C 252.097656 649.453125 288.222656 650.261719 324.433594 650.566406 C 373.613281 649.578125 422.71875 650.476562 471.925781 647.773438 C 479.851562 646.734375 486.617188 641.78125 493.503906 637.867188 C 485.71875 634.96875 476.761719 635.195312 468.417969 634.378906 C 466.359375 631.960938 465.585938 628.414062 467.847656 625.957031 C 469.007812 620.382812 468.535156 614.761719 465.84375 609.710938 C 466.171875 608.527344 466.769531 607.398438 466.554688 606.082031 C 466.6875 604.90625 468.296875 603.535156 466.6875 602.71875 C 464.210938 601.289062 459.324219 600.820312 455.933594 602.308594 C 454.796875 602.585938 454.390625 602.847656 455.257812 603.109375 C 456.695312 603.671875 456.515625 605.175781 457.28125 606.28125 C 457.625 606.964844 457.378906 607.652344 456.660156 608.363281 C 455.738281 609.492188 457.046875 610.707031 457.109375 611.894531 C 457.136719 612.980469 456.742188 614.058594 457.371094 615.054688 C 459.53125 618.707031 456.375 619.785156 455.933594 623.054688 C 456.757812 625.203125 454.808594 627.207031 455.558594 629.28125 C 456.382812 631.355469 456.398438 633.441406 456.667969 635.523438 C 442.058594 636.914062 427.34375 637.3125 412.664062 637.476562 C 417.359375 632.761719 415.082031 625.472656 416.027344 619.589844 C 416.78125 611.109375 416.828125 602.660156 414.972656 594.351562 C 411.714844 579.195312 412.84375 560.832031 400.519531 549.523438 C 400.617188 548.292969 401.941406 548.503906 402.777344 548.242188 C 404 547.121094 404.664062 545.765625 404.90625 544.15625 C 413.503906 548.992188 423.40625 550.074219 432.828125 547.148438 C 435.988281 556.675781 443.15625 565.566406 453.566406 566.847656 C 460.117188 569.65625 467.554688 568.496094 473.632812 571.996094 C 483.183594 581.089844 488.378906 593.28125 490.324219 606.253906 C 491.183594 614.46875 490.734375 622.671875 490.242188 631.0625 C 491.4375 633.898438 495.03125 635.1875 497.695312 637.632812 C 500.113281 637.230469 503.71875 633.472656 503.765625 631.191406 Z M 385.992188 480.367188 C 386.328125 478.578125 386.71875 476.796875 387.136719 475.023438 C 387.714844 476.746094 389.464844 478.136719 391.378906 478.203125 C 389.335938 478.953125 387.503906 480.03125 385.8125 481.378906 C 385.871094 481.046875 385.925781 480.710938 385.992188 480.367188 Z M 438.425781 449.40625 C 438.6875 448.648438 438.957031 447.886719 439.226562 447.128906 C 439.886719 447.472656 440.539062 447.8125 441.1875 448.183594 C 439.804688 450.699219 437.992188 453.035156 436.421875 455.46875 C 437.078125 453.445312 437.738281 451.425781 438.425781 449.40625 Z M 458.867188 481.804688 C 459.082031 483.644531 459.308594 485.515625 459.546875 487.484375 C 458.949219 487.890625 458.289062 488.144531 457.625 488.367188 C 457.578125 488.21875 457.535156 488.082031 457.488281 487.941406 C 457.398438 488.128906 457.289062 488.316406 457.183594 488.496094 C 455.777344 488.9375 454.257812 489.003906 452.796875 488.890625 C 454.960938 486.640625 456.988281 484.273438 458.867188 481.804688 Z M 450.515625 454.074219 C 449.332031 456.3125 448.15625 458.550781 446.972656 460.789062 C 447.640625 458.183594 448.238281 455.542969 448.949219 452.953125 C 449.480469 453.3125 450.003906 453.6875 450.515625 454.074219 Z M 427.082031 445.445312 C 427.222656 444.929688 427.359375 444.40625 427.5 443.890625 C 427.722656 443.910156 427.941406 443.925781 428.171875 443.933594 C 427.8125 444.441406 427.441406 444.9375 427.082031 445.445312 Z M 412.113281 443.46875 C 413.339844 443.433594 414.550781 443.441406 415.742188 443.433594 C 414.230469 445.773438 412.734375 448.164062 411.25 450.511719 C 411.484375 448.125 411.746094 445.78125 412.113281 443.46875 Z M 402.335938 457.683594 C 402.226562 461.722656 399.335938 466.019531 401.109375 469.851562 C 399.417969 471.117188 398.054688 472.488281 396.542969 473.871094 C 398.234375 468.28125 399.859375 462.882812 402.335938 457.683594 Z M 410.496094 467.613281 C 412.113281 465.136719 413.683594 462.628906 415.242188 460.113281 C 414.378906 463.175781 413.75 466.371094 412.335938 469.230469 C 411.664062 468.871094 410.921875 468.535156 410.070312 468.273438 Z M 419.257812 474.101562 C 419.4375 473.789062 419.640625 473.472656 419.828125 473.167969 L 420.023438 473.25 C 420.507812 471.632812 421.667969 470.300781 422.484375 468.847656 C 421.878906 471.109375 421.28125 473.371094 420.667969 475.636719 C 420.113281 475.226562 419.566406 474.828125 419.035156 474.402344 C 419.109375 474.296875 419.191406 474.207031 419.257812 474.101562 Z M 434.585938 475.691406 C 433.972656 479.042969 431.78125 483.023438 434.511719 485.964844 C 432.761719 485.261719 431.609375 483.675781 430.238281 482.476562 C 431.683594 480.210938 433.136719 477.949219 434.585938 475.691406 Z M 443.375 485.066406 C 443.679688 484.542969 443.980469 484.011719 444.28125 483.488281 C 443.742188 485.1875 443.652344 487.089844 444.78125 488.621094 C 442.933594 488.621094 441.128906 488.203125 439.347656 487.753906 C 440.980469 487.53125 442.492188 486.59375 443.375 485.066406 Z M 399.875 446.664062 C 398.304688 449.203125 396.8125 451.835938 395.488281 454.53125 C 395.675781 452.652344 395.265625 450.601562 396.050781 448.867188 C 397.277344 448.066406 398.558594 447.324219 399.875 446.664062 Z M 382.714844 460.03125 C 382.789062 459.949219 382.863281 459.875 382.9375 459.792969 C 382.003906 462.164062 381.148438 464.566406 380.347656 466.984375 C 380.152344 466.230469 379.953125 465.480469 379.726562 464.746094 C 380.617188 463.152344 381.472656 461.46875 382.714844 460.03125 Z M 301.097656 567.84375 C 293.035156 559.609375 284.203125 552.3125 274.78125 545.726562 C 272.492188 542.980469 270.359375 540.113281 267.65625 537.742188 C 265.03125 535.03125 263.472656 530.488281 259.085938 530.445312 C 267.164062 522.292969 273.015625 509.40625 269.753906 497.859375 C 287.96875 503.570312 308.15625 505.410156 326.3125 498.578125 C 325.128906 511.472656 324.238281 526.980469 334.664062 536.597656 C 331.003906 543.078125 324.441406 546.714844 320.472656 552.90625 C 315.300781 559.648438 307.90625 563.242188 301.097656 567.84375 Z M 229.816406 538.871094 C 223.101562 542.320312 215.320312 543.019531 208.53125 546.773438 C 207.109375 546.125 207.648438 544.964844 208.035156 543.878906 C 207.503906 540.824219 205.894531 538.363281 202.886719 537.292969 C 214.226562 528.859375 220.59375 514.742188 222.652344 501.136719 C 226.621094 500.648438 231.164062 497.394531 232.757812 493.628906 C 234.621094 485.300781 235.511719 477.253906 234.375 468.929688 C 240.210938 479.328125 248.96875 488.113281 259.617188 493.539062 C 259.148438 494.144531 259.101562 494.992188 258.824219 495.671875 C 258.503906 497.117188 256.414062 499.011719 258.175781 500.066406 C 260.703125 503.121094 260.097656 507.855469 259.917969 511.742188 C 259.707031 516.039062 256.035156 518.582031 253.824219 521.890625 C 248.511719 530.617188 238.722656 534.597656 229.816406 538.871094 Z M 164.34375 457.167969 L 164.164062 457.789062 C 163.917969 457.824219 163.675781 457.855469 163.4375 457.914062 C 163.8125 457.382812 164.207031 456.859375 164.589844 456.328125 C 164.507812 456.605469 164.425781 456.882812 164.34375 457.167969 Z M 198.34375 457.683594 C 197.507812 458.566406 196.675781 459.449219 195.851562 460.339844 C 198.5625 455.820312 200.761719 450.699219 204.324219 446.867188 C 204.847656 447.175781 205.371094 447.496094 205.894531 447.8125 C 204.804688 451.972656 200.980469 454.472656 198.34375 457.683594 Z M 218.835938 485.777344 C 218.84375 485.859375 218.859375 485.929688 218.867188 486.011719 C 218.84375 485.996094 218.820312 485.972656 218.792969 485.957031 C 218.8125 485.890625 218.828125 485.832031 218.835938 485.777344 Z M 218.074219 480.441406 C 217.960938 480.335938 217.855469 480.226562 217.75 480.121094 C 217.839844 480.054688 217.921875 479.992188 218.011719 479.925781 C 218.027344 480.089844 218.050781 480.269531 218.074219 480.441406 Z M 215.160156 455.167969 C 213.703125 456.6875 212.257812 458.207031 210.804688 459.726562 C 211.679688 457.628906 211.898438 455.144531 213.71875 453.617188 C 214.210938 454.113281 214.691406 454.636719 215.160156 455.167969 Z M 195.148438 442.191406 C 194.519531 442.765625 193.898438 443.335938 193.277344 443.917969 L 194.152344 441.832031 C 194.476562 441.957031 194.820312 442.0625 195.148438 442.191406 Z M 175.046875 461.84375 C 174.722656 461.566406 174.371094 461.289062 173.996094 460.992188 C 175.253906 459.007812 176.601562 457.078125 178.03125 455.21875 C 177.035156 457.421875 176.035156 459.628906 175.046875 461.84375 Z M 194.757812 474.171875 C 195.507812 473.347656 196.269531 472.53125 197.019531 471.707031 C 196.390625 473.632812 195.179688 475.570312 195.664062 477.664062 C 194.632812 477.328125 193.605469 476.96875 192.617188 476.511719 C 193.328125 475.734375 194.039062 474.957031 194.757812 474.171875 Z M 206.554688 478.265625 C 206.539062 478.535156 206.554688 478.804688 206.585938 479.074219 C 206.351562 479.042969 206.121094 479.011719 205.882812 478.96875 Z M 306.125 295.566406 C 304.195312 297.0625 302.390625 298.71875 300.625 300.402344 C 301.335938 298.417969 302.0625 296.375 302.78125 294.390625 C 303.925781 294.734375 305.035156 295.132812 306.125 295.566406 Z M 367.152344 357.386719 C 367.640625 357.960938 368.105469 358.546875 368.574219 359.136719 C 364.460938 366.21875 357.566406 371.320312 352.246094 377.511719 C 355.90625 369.710938 360.507812 362.503906 365.84375 355.753906 C 366.285156 356.300781 366.726562 356.839844 367.152344 357.386719 Z M 256.675781 317.203125 C 256.691406 318.796875 256.773438 320.382812 256.871094 321.964844 C 256.65625 320.390625 256.585938 318.78125 256.675781 317.203125 Z M 351.339844 359.945312 L 353.285156 357.09375 C 350.769531 362.773438 346.707031 367.519531 343.179688 372.578125 C 344.746094 369.382812 349.234375 362.917969 351.339844 359.945312 Z M 273.480469 330.375 C 273.597656 330.382812 273.703125 330.382812 273.816406 330.382812 C 268.71875 339.589844 263.261719 348.359375 259.820312 358.335938 C 260.5625 347.605469 266.9375 338.636719 273.480469 330.375 Z M 277.46875 336.332031 C 278.652344 333.339844 279.796875 330.390625 280.835938 327.507812 C 281.570312 328.144531 282.175781 327.980469 283.007812 328.191406 C 281.015625 331.0625 279.09375 333.976562 277.230469 336.925781 C 277.3125 336.730469 277.386719 336.535156 277.46875 336.332031 Z M 322.816406 329.621094 C 323.078125 329.671875 323.332031 329.738281 323.585938 329.785156 C 319.328125 336.46875 314.957031 343.121094 310.542969 349.753906 C 313.355469 342.941406 316.042969 336.046875 318.445312 329.019531 C 319.90625 329.164062 321.371094 329.335938 322.816406 329.621094 Z M 332.742188 332.277344 C 333.101562 332.402344 333.453125 332.515625 333.8125 332.636719 C 332.5625 335.710938 330.441406 338.292969 328.667969 341.101562 C 330.0625 338.195312 331.429688 335.253906 332.742188 332.277344 Z M 292.207031 336.746094 C 291.335938 338.195312 290.46875 339.648438 289.59375 341.101562 C 291.417969 336.617188 293.246094 332.121094 295.070312 327.636719 C 295.917969 327.480469 296.792969 327.367188 297.667969 327.285156 C 296.246094 330.644531 294.007812 333.585938 292.207031 336.746094 Z M 304.179688 331.925781 C 305.078125 330.488281 305.96875 329.042969 306.875 327.605469 C 307.75 327.71875 308.625 327.839844 309.507812 327.972656 C 305.519531 334.535156 300.394531 343.007812 296.480469 349.503906 C 299.03125 343.636719 301.597656 337.785156 304.179688 331.925781 Z M 350.679688 405.308594 C 350.449219 405.703125 350.222656 406.101562 349.992188 406.511719 C 349.851562 406.46875 349.714844 406.429688 349.574219 406.386719 C 349.945312 406.027344 350.3125 405.667969 350.679688 405.308594 Z M 225.65625 380.675781 C 226.261719 380.144531 226.933594 379.792969 227.726562 379.621094 L 221.5625 384.203125 C 221.644531 383.96875 221.734375 383.730469 221.816406 383.5 C 223.101562 382.570312 224.382812 381.628906 225.65625 380.675781 Z M 218.304688 404.625 C 217.929688 402.515625 217.804688 400.359375 217.8125 398.21875 C 222.5625 396.199219 227.308594 394.179688 232.03125 392.113281 C 227.578125 396.746094 223.199219 401.421875 218.515625 405.808594 Z M 252.664062 375.691406 C 252.042969 375.332031 251.347656 375.109375 250.621094 375.0625 C 251.46875 374.464844 252.320312 373.867188 253.160156 373.261719 C 253.40625 373.761719 253.667969 374.253906 253.945312 374.734375 C 253.511719 375.050781 253.085938 375.371094 252.664062 375.691406 Z M 270.851562 367.828125 C 269.796875 370.738281 268.449219 373.574219 267.574219 376.523438 C 267.507812 376.472656 267.433594 376.417969 267.371094 376.367188 C 268.40625 373.53125 269.582031 370.671875 270.851562 367.828125 Z M 275.296875 379.335938 C 275.738281 378.589844 276.1875 377.847656 276.628906 377.09375 C 276.046875 378.582031 275.289062 380.027344 274.8125 381.558594 C 274.4375 381.328125 274.070312 381.082031 273.703125 380.847656 C 274.339844 380.503906 274.902344 379.996094 275.296875 379.335938 Z M 283.621094 385.210938 C 286.367188 380.738281 289.097656 376.253906 291.816406 371.769531 C 289.546875 376.816406 287.296875 381.890625 285.125 387.03125 C 284.40625 386.703125 283.6875 386.371094 282.984375 386.027344 C 283.222656 385.789062 283.433594 385.511719 283.621094 385.210938 Z M 295.976562 387.40625 C 295.484375 388.492188 294.96875 389.5625 294.292969 390.554688 C 294.210938 390.527344 294.128906 390.496094 294.046875 390.472656 C 294.691406 389.441406 295.328125 388.421875 295.976562 387.40625 Z M 310.152344 381.890625 C 308.851562 385.765625 304.867188 390.160156 307.316406 394.277344 C 305.714844 393.835938 304.105469 393.40625 302.503906 392.957031 C 304.929688 389.238281 307.519531 385.550781 310.152344 381.890625 Z M 332.988281 401.421875 C 333.011719 401.46875 333.046875 401.519531 333.070312 401.566406 C 333.011719 401.550781 332.964844 401.535156 332.90625 401.519531 C 332.933594 401.484375 332.964844 401.453125 332.988281 401.421875 Z M 373.34375 415.636719 C 372.308594 418.710938 370.246094 420.769531 367.558594 422.535156 C 367.40625 422.09375 367.234375 421.660156 367.0625 421.226562 Z M 369.128906 427.730469 L 369.511719 428.058594 C 369.4375 428.164062 369.367188 428.269531 369.292969 428.375 C 369.234375 428.15625 369.175781 427.941406 369.128906 427.730469 Z M 381.933594 394.777344 C 381.367188 395.226562 380.8125 395.675781 380.25 396.125 C 380.789062 395.144531 381.320312 394.164062 381.859375 393.175781 C 381.890625 393.707031 381.921875 394.238281 381.933594 394.777344 Z M 375.050781 369.167969 C 374.382812 369.636719 373.890625 370.3125 373.320312 370.894531 L 373.109375 370.753906 C 372.332031 372.347656 370.761719 373.378906 369.535156 374.710938 C 371.203125 372.429688 372.640625 369.96875 374.285156 367.683594 C 374.546875 368.171875 374.808594 368.671875 375.050781 369.167969 Z M 359.683594 349.226562 L 358.898438 348.75 C 358.929688 348.703125 358.964844 348.652344 358.996094 348.605469 C 359.226562 348.816406 359.453125 349.019531 359.683594 349.226562 Z M 347.207031 346.363281 C 344.707031 351.0625 342.449219 356.054688 339.363281 360.441406 C 341.519531 355.3125 344.289062 350.507812 347.417969 345.921875 C 347.34375 346.078125 347.28125 346.21875 347.207031 346.363281 Z M 342.082031 337.507812 C 342.3125 337.148438 342.550781 336.789062 342.777344 336.421875 C 343.226562 336.65625 343.675781 336.894531 344.117188 337.140625 C 343.414062 337.097656 342.71875 337.222656 342.082031 337.507812 Z M 311.574219 306.007812 C 312.503906 303.476562 313.671875 301.292969 316.058594 299.890625 C 316.191406 299.960938 316.320312 300.027344 316.453125 300.109375 C 314.824219 302.078125 313.207031 304.054688 311.574219 306.007812 Z M 284.175781 316.65625 C 284.59375 313.511719 285.894531 310.878906 287.574219 308.257812 C 286.414062 311.042969 285.28125 313.835938 284.175781 316.65625 Z M 231.851562 363.644531 C 232.234375 363.058594 232.644531 362.484375 233.050781 361.90625 C 233.160156 361.890625 233.265625 361.863281 233.371094 361.847656 L 233.453125 362.054688 C 234.875 361.292969 236.679688 361.382812 238.242188 360.957031 C 235.421875 363.035156 232.585938 365.09375 229.734375 367.128906 C 230.414062 365.957031 231.125 364.796875 231.851562 363.644531 Z M 360.433594 441.292969 C 358.5 463.804688 339.605469 482.050781 318.753906 488.570312 C 289.996094 496.242188 250.726562 488.488281 241.363281 456.589844 C 236.933594 443.484375 237.203125 428.929688 241.6875 415.808594 C 245.617188 402.890625 255.367188 392.605469 256.550781 378.597656 C 271.726562 396.363281 295.371094 400.097656 316.363281 407.015625 C 316.984375 411.542969 323.109375 413.578125 326.320312 410.359375 C 335.136719 413.421875 345.179688 416.078125 354.183594 418.734375 C 354.289062 418.898438 354.902344 419.855469 354.992188 420 C 353.765625 422.453125 355.320312 425.835938 358.046875 426.4375 C 359.804688 431.113281 360.664062 436.316406 360.433594 441.292969 Z M 349.59375 341.152344 C 349.167969 342.148438 348.765625 343.136719 348.242188 344.207031 L 347.261719 343.652344 C 348.007812 342.359375 348.21875 340.769531 347.542969 339.445312 C 348.226562 340.015625 348.898438 340.605469 349.59375 341.152344 Z M 288.089844 293.726562 C 284.234375 297.722656 281.171875 302.210938 278.554688 306.964844 C 278.800781 303.484375 280.800781 301.1875 283.269531 298.941406 L 281.488281 297.847656 C 282.0625 296.652344 282.722656 295.289062 281.898438 294.039062 C 283.898438 293.457031 286.046875 293.644531 288.089844 293.726562 Z M 270.097656 300.953125 C 271.03125 300.296875 271.894531 299.554688 272.804688 298.835938 C 269.976562 302.265625 267.6875 306.082031 265.425781 309.898438 C 265.269531 308.246094 265.074219 306.582031 264.871094 304.90625 C 265.5625 304.0625 266.789062 303.8125 267.304688 302.929688 L 267.261719 302.921875 C 268.1875 302.242188 269.144531 301.605469 270.097656 300.953125 Z M 221.824219 414.761719 C 223.925781 413.789062 226.035156 412.820312 228.160156 411.902344 C 226.523438 414.371094 225.109375 416.953125 223.886719 419.648438 C 223.207031 418.0625 222.503906 416.355469 221.824219 414.761719 Z M 180.613281 440.402344 C 179.410156 441.53125 178.242188 442.691406 177.097656 443.882812 C 177.296875 443.214844 177.492188 442.542969 177.6875 441.875 C 177.859375 441.71875 178.023438 441.554688 178.195312 441.398438 L 177.882812 441.203125 C 177.964844 440.933594 178.039062 440.664062 178.121094 440.394531 C 178.953125 440.386719 179.777344 440.394531 180.613281 440.402344 Z M 164.949219 441.410156 C 165.726562 441.210938 166.5 441.066406 167.285156 440.949219 C 164.34375 444.195312 161.550781 447.578125 158.984375 451.132812 C 159.671875 449.074219 160.03125 446.875 161.640625 445.304688 L 160.953125 444.921875 C 161.15625 444.160156 161.535156 443.417969 161.535156 442.617188 C 162.644531 442.128906 163.78125 441.710938 164.949219 441.410156 Z M 147.210938 452.601562 C 145.019531 455.953125 143.011719 459.417969 141.222656 462.996094 C 141.015625 461.992188 140.746094 461.003906 140.386719 460.054688 C 142.085938 457.128906 144.621094 454.839844 147.210938 452.601562 Z M 150.4375 512.675781 C 147.269531 504.871094 145.675781 495.972656 145.886719 487.539062 C 148.148438 484.894531 149.5 481.542969 153.035156 480.359375 C 156.714844 478.09375 158.324219 473.632812 162.148438 471.429688 C 163.675781 473.289062 166.761719 473.226562 168.257812 471.417969 C 178.488281 483.667969 194.316406 490.613281 210.265625 491.554688 C 213.148438 494.214844 212.617188 498.71875 213.074219 502.445312 C 213.402344 506.285156 210.550781 509.085938 209.414062 512.46875 C 207.152344 520.421875 200.722656 526.320312 193.90625 530.585938 C 187.183594 534.84375 179.140625 532.1875 171.894531 531.058594 C 162.210938 529.652344 154.277344 521.582031 150.4375 512.675781 Z M 148.851562 635.382812 C 146.671875 635.382812 144.480469 635.394531 142.300781 635.402344 C 142.277344 631.921875 138.828125 629.265625 139.914062 625.605469 C 141.644531 623.667969 141.457031 621.167969 141.875 618.773438 C 142.160156 614.546875 141.148438 610.644531 139.40625 606.851562 C 139.757812 605.640625 140.371094 604.5 140.191406 603.152344 C 140.347656 601.949219 141.996094 600.609375 140.414062 599.726562 C 137.992188 598.199219 133.109375 597.503906 129.683594 598.941406 C 128.539062 599.195312 128.125 599.457031 128.972656 599.757812 C 130.402344 600.421875 130.167969 601.964844 130.910156 603.132812 C 131.238281 603.851562 130.976562 604.5625 130.238281 605.28125 C 129.292969 606.433594 130.574219 607.726562 130.632812 608.953125 C 130.273438 610.714844 130.804688 612.253906 131.375 613.902344 C 132.445312 616.402344 129.257812 618.003906 129.308594 620.457031 C 130.101562 622.671875 128.140625 624.714844 128.859375 626.855469 C 129.878906 629.730469 129.644531 632.589844 130.140625 635.484375 C 122.421875 635.5625 114.699219 635.664062 106.976562 635.753906 C 103.421875 614.457031 102.058594 588.746094 118.6875 572.476562 C 132.085938 560.03125 163.242188 568.292969 162.449219 540.898438 C 172.785156 545.144531 184.492188 545.332031 194.9375 541.347656 C 194.886719 543.160156 197.148438 543.398438 197.519531 544.949219 C 196.871094 546.976562 196.257812 548.003906 197.871094 549.714844 C 197.632812 551.601562 198.777344 552.351562 200.140625 553.175781 C 184.386719 568.710938 180.523438 590.394531 181.390625 611.632812 C 182.269531 617.652344 180.785156 632.253906 184.953125 635.851562 C 172.914062 635.644531 160.886719 635.402344 148.851562 635.382812 Z M 224.816406 636.375 L 195.058594 635.996094 C 198.121094 630.703125 194.128906 625.328125 194.019531 619.828125 C 193.480469 612.546875 193.300781 605.324219 192.640625 598.085938 C 191.984375 578.394531 205.640625 560.179688 223.304688 552.492188 C 222.625 553.816406 221.65625 554.976562 220.421875 555.988281 C 218.011719 558.324219 217.519531 561.855469 215.949219 564.699219 C 213.933594 568.792969 206.734375 578.328125 210.878906 582.265625 C 215.746094 585.761719 216.734375 592.023438 220.222656 596.589844 C 222.480469 599.039062 224.726562 602.855469 226 605.96875 C 232.5625 615.683594 238.316406 625.847656 242.507812 636.878906 C 236.613281 636.742188 230.714844 636.472656 224.816406 636.375 Z M 254.074219 637.125 C 256.183594 633.1875 255.472656 632.320312 253.003906 629.140625 C 250.773438 625.921875 249.597656 622.214844 247.671875 618.855469 C 245.144531 615.347656 242.203125 611.835938 240.046875 608.054688 C 237.628906 604.597656 236.164062 600.75 234.859375 596.777344 C 231.019531 589.996094 226.335938 583.507812 220.960938 577.871094 C 223.859375 571.789062 224.847656 564.765625 229.660156 559.789062 C 231.261719 555.21875 236.625 552.253906 236.65625 547.277344 C 242.058594 545.039062 247.34375 541.941406 251.835938 538.085938 C 251.851562 538.894531 252.214844 539.351562 253.105469 539.3125 C 255.246094 539.5 256.484375 541.289062 258.226562 542.300781 C 255.425781 543.601562 257.867188 544.46875 257.988281 546.167969 C 258.367188 550.375 260.121094 554.5 258.457031 558.660156 C 257.582031 561.773438 258.996094 564.933594 259.207031 568.046875 C 259.386719 570.851562 259.117188 573.695312 259.984375 576.414062 C 262.597656 583.457031 260.269531 590.429688 260.800781 597.609375 C 262.117188 611.273438 265.644531 624.445312 270.148438 637.460938 C 264.789062 637.335938 259.429688 637.230469 254.074219 637.125 Z M 284.734375 637.84375 C 284.675781 637.84375 284.609375 637.84375 284.554688 637.835938 C 281.519531 634.414062 280.589844 630.171875 279.101562 626.027344 C 277.296875 622.507812 275.367188 618.929688 274.503906 615.015625 C 272.589844 605.453125 273.9375 595.460938 271.839844 585.769531 C 271.421875 577.878906 269.117188 570.058594 267.730469 562.34375 C 268.074219 559.078125 268.40625 555.816406 268.390625 552.53125 C 274.871094 558.144531 281.496094 563.628906 287.835938 569.378906 C 291.667969 574.796875 297.039062 586.644531 305.070312 580.3125 C 312.039062 574.316406 319.800781 569.46875 326.035156 562.574219 C 324.492188 565.097656 325.472656 568.179688 325.070312 570.949219 C 324.140625 574.570312 324.015625 578.214844 323.945312 581.929688 C 324.082031 587.085938 320.003906 590.894531 318.992188 595.78125 C 318.683594 599.023438 317.613281 602.023438 316.328125 604.996094 C 314.589844 611.484375 314.171875 618.324219 312.179688 624.769531 C 311.386719 628.257812 310.496094 631.722656 309.6875 635.210938 C 310.019531 636.824219 312.449219 638.136719 313.738281 639.476562 C 304.046875 639.40625 294.40625 638.1875 284.734375 637.84375 Z M 321.976562 639.632812 C 323.765625 638 322.015625 634.601562 322.898438 632.484375 C 324.695312 626.78125 323.992188 620.832031 325.179688 615.03125 C 326.738281 608.054688 330.773438 602.234375 332.050781 594.890625 C 334.238281 585.917969 334.957031 576.816406 334.453125 567.625 C 335.253906 564.894531 336.167969 562.199219 336.355469 559.332031 C 336.699219 556.9375 338.480469 554.550781 337.703125 552.117188 C 339.933594 549.761719 343.015625 547.898438 344.707031 545.1875 C 348.78125 547.941406 353.726562 549.273438 358.523438 549.992188 C 356.382812 552.285156 359.027344 552.359375 359.804688 553.976562 C 361.808594 558.078125 365.09375 561.488281 365.351562 566.257812 C 366.351562 570.933594 370.328125 574.25 372.136719 578.628906 C 368.449219 587.003906 360.074219 591.761719 356.667969 600.371094 C 348.113281 612.105469 343.757812 626.421875 338.070312 639.691406 C 332.703125 639.707031 327.34375 639.699219 321.976562 639.632812 Z M 402.171875 581.546875 C 404.097656 590.683594 404.597656 600.09375 404.378906 609.410156 C 404.207031 616.753906 403.371094 624.050781 401.886719 631.191406 C 401.714844 633.464844 403.894531 635.523438 404.949219 637.605469 C 387.105469 638.066406 369.300781 639.574219 351.429688 639.574219 C 355.027344 630.597656 356.414062 620.675781 361.847656 612.488281 C 370.355469 602.808594 376.734375 591.015625 383.335938 579.953125 C 385.175781 576.136719 380.4375 573.546875 378.6875 570.605469 C 373.980469 565.195312 372.511719 557.746094 370.714844 550.972656 C 392.699219 553.863281 397.914062 560.605469 402.171875 581.546875 Z M 422.042969 536.597656 C 408.871094 536.671875 396.230469 530.550781 388.296875 519.914062 C 384.921875 515.035156 384.570312 508.476562 384.34375 502.730469 C 384.472656 500.082031 385.640625 497.402344 385.414062 494.773438 C 388.199219 491.765625 390.75 487.933594 395.003906 487.042969 C 396.835938 486.683594 397.882812 485.179688 399.230469 484.125 C 401.214844 481.78125 404.800781 480.605469 406.8125 478.578125 C 406.761719 478.363281 406.535156 478.105469 407.023438 478.160156 C 411.222656 479.949219 412.921875 486.480469 417.34375 488.644531 C 420.585938 490.285156 423.675781 492.394531 426.675781 494.453125 C 434.8125 498.335938 444.070312 500.164062 453.097656 501.046875 C 454.855469 507.347656 452.070312 513.65625 450.679688 519.765625 C 446.503906 532.691406 434.28125 535.976562 422.042969 536.597656 Z M 422.042969 536.597656 " fill-opacity="1" fill-rule="nonzero"/></g><path fill="#000000" d="M 392.914062 539.195312 C 392.832031 539.222656 392.75 539.246094 392.636719 539.285156 C 391.917969 539.515625 392.136719 539.476562 392.914062 539.195312 Z M 392.914062 539.195312 " fill-opacity="1" fill-rule="nonzero"/></svg>