<svg xmlns="http://www.w3.org/2000/svg" xmlns:xlink="http://www.w3.org/1999/xlink" width="794" zoomAndPan="magnify" viewBox="0 0 594.95996 842.24997" height="1123" preserveAspectRatio="xMidYMid meet" version="1.0"><defs><clipPath id="1c7aa29a5c"><path d="M 0.246094 0 L 594.675781 0 L 594.675781 841.5 L 0.246094 841.5 Z M 0.246094 0 " clip-rule="nonzero"/></clipPath><clipPath id="6d675bb48d"><path d="M 106 228.039062 L 490.242188 228.039062 L 490.242188 612 L 106 612 Z M 106 228.039062 " clip-rule="nonzero"/></clipPath></defs><g clip-path="url(#1c7aa29a5c)"><path fill="#ffffff" d="M 0.246094 0 L 595.214844 0 L 595.214844 841.5 L 0.246094 841.5 Z M 0.246094 0 " fill-opacity="1" fill-rule="nonzero"/><path fill="#ffffff" d="M 0.246094 0 L 595.214844 0 L 595.214844 841.5 L 0.246094 841.5 Z M 0.246094 0 " fill-opacity="1" fill-rule="nonzero"/></g><g clip-path="url(#6d675bb48d)"><path fill="#221f1f" d="M 342.304688 228.039062 C 260.597656 228.039062 194.359375 294.273438 194.359375 375.972656 C 194.359375 409.484375 205.507812 440.386719 224.289062 465.1875 L 216.851562 472.625 C 209.5625 468 199.792969 468.859375 193.429688 475.214844 L 112.453125 556.210938 C 105.085938 563.578125 105.085938 575.523438 112.453125 582.890625 L 135.398438 605.835938 C 142.765625 613.203125 154.707031 613.203125 162.074219 605.835938 L 243.0625 524.847656 C 249.425781 518.484375 250.277344 508.726562 245.65625 501.425781 L 253.089844 493.992188 C 277.890625 512.773438 308.792969 523.917969 342.304688 523.917969 C 424.011719 523.917969 490.242188 457.683594 490.242188 375.980469 C 490.242188 294.28125 424.003906 228.039062 342.304688 228.039062 Z M 430.652344 464.320312 C 407.054688 487.917969 375.675781 500.914062 342.304688 500.914062 C 308.933594 500.914062 277.554688 487.917969 253.957031 464.320312 C 230.359375 440.722656 217.367188 409.347656 217.367188 375.972656 C 217.367188 342.601562 230.359375 311.226562 253.957031 287.628906 C 277.554688 264.03125 308.933594 251.035156 342.304688 251.035156 C 375.675781 251.035156 407.054688 264.03125 430.652344 287.628906 C 454.25 311.226562 467.242188 342.601562 467.242188 375.972656 C 467.242188 409.347656 454.25 440.722656 430.652344 464.320312 Z M 430.652344 464.320312 " fill-opacity="1" fill-rule="nonzero"/></g><path fill="#221f1f" d="M 358.6875 279.960938 C 358.6875 280.765625 358.609375 281.5625 358.453125 282.351562 C 358.296875 283.136719 358.0625 283.902344 357.753906 284.648438 C 357.449219 285.390625 357.070312 286.09375 356.625 286.761719 C 356.175781 287.433594 355.667969 288.050781 355.101562 288.617188 C 354.53125 289.1875 353.914062 289.695312 353.246094 290.140625 C 352.578125 290.585938 351.871094 290.964844 351.128906 291.273438 C 350.386719 291.582031 349.621094 291.8125 348.832031 291.96875 C 348.042969 292.125 347.246094 292.203125 346.445312 292.203125 C 345.640625 292.203125 344.84375 292.125 344.054688 291.96875 C 343.265625 291.8125 342.5 291.582031 341.757812 291.273438 C 341.015625 290.964844 340.308594 290.585938 339.640625 290.140625 C 338.972656 289.695312 338.355469 289.1875 337.785156 288.617188 C 337.21875 288.050781 336.710938 287.433594 336.265625 286.761719 C 335.816406 286.09375 335.441406 285.390625 335.132812 284.648438 C 334.824219 283.902344 334.59375 283.136719 334.4375 282.351562 C 334.277344 281.5625 334.199219 280.765625 334.199219 279.960938 C 334.199219 279.15625 334.277344 278.359375 334.4375 277.574219 C 334.59375 276.785156 334.824219 276.019531 335.132812 275.277344 C 335.441406 274.535156 335.816406 273.828125 336.265625 273.160156 C 336.710938 272.492188 337.21875 271.871094 337.785156 271.304688 C 338.355469 270.734375 338.972656 270.226562 339.640625 269.78125 C 340.308594 269.335938 341.015625 268.957031 341.757812 268.648438 C 342.5 268.34375 343.265625 268.109375 344.054688 267.953125 C 344.84375 267.796875 345.640625 267.71875 346.445312 267.71875 C 347.246094 267.71875 348.042969 267.796875 348.832031 267.953125 C 349.621094 268.109375 350.386719 268.34375 351.128906 268.648438 C 351.871094 268.957031 352.578125 269.335938 353.246094 269.78125 C 353.914062 270.226562 354.53125 270.734375 355.101562 271.304688 C 355.667969 271.871094 356.175781 272.492188 356.625 273.160156 C 357.070312 273.828125 357.449219 274.535156 357.753906 275.277344 C 358.0625 276.019531 358.296875 276.785156 358.453125 277.574219 C 358.609375 278.359375 358.6875 279.15625 358.6875 279.960938 Z M 358.6875 279.960938 " fill-opacity="1" fill-rule="nonzero"/><path fill="#221f1f" d="M 314.566406 273.128906 C 313.179688 273.414062 280.230469 280.503906 256.570312 310.464844 C 252.238281 315.945312 253.175781 323.90625 258.664062 328.230469 C 260.988281 330.0625 263.746094 330.949219 266.492188 330.949219 C 270.234375 330.949219 273.9375 329.300781 276.425781 326.136719 C 294.105469 303.742188 319.226562 298 319.726562 297.886719 C 326.535156 296.453125 330.910156 289.773438 329.507812 282.953125 C 328.097656 276.113281 321.40625 271.703125 314.566406 273.121094 Z M 314.566406 273.128906 " fill-opacity="1" fill-rule="nonzero"/></svg>