<svg xmlns="http://www.w3.org/2000/svg" xmlns:xlink="http://www.w3.org/1999/xlink" width="794" zoomAndPan="magnify" viewBox="0 0 594.95996 842.24997" height="1123" preserveAspectRatio="xMidYMid meet" version="1.0"><defs><clipPath id="972f8845c8"><path d="M 0.246094 0 L 594.675781 0 L 594.675781 841.5 L 0.246094 841.5 Z M 0.246094 0 " clip-rule="nonzero"/></clipPath><clipPath id="8cdbe9c239"><path d="M 112 230 L 483.347656 230 L 483.347656 611 L 112 611 Z M 112 230 " clip-rule="nonzero"/></clipPath></defs><g clip-path="url(#972f8845c8)"><path fill="#ffffff" d="M 0.246094 0 L 595.214844 0 L 595.214844 841.5 L 0.246094 841.5 Z M 0.246094 0 " fill-opacity="1" fill-rule="nonzero"/><path fill="#ffffff" d="M 0.246094 0 L 595.214844 0 L 595.214844 841.5 L 0.246094 841.5 Z M 0.246094 0 " fill-opacity="1" fill-rule="nonzero"/></g><g clip-path="url(#8cdbe9c239)"><path fill="#222831" d="M 460.644531 358.347656 L 455.753906 335.980469 L 453.1875 336.851562 C 450.433594 337.808594 447.820312 339.054688 445.34375 340.59375 C 442.863281 342.132812 440.585938 343.921875 438.503906 345.964844 C 436.425781 348.007812 434.59375 350.253906 433.011719 352.703125 C 431.425781 355.152344 430.132812 357.742188 429.125 360.480469 C 428.082031 363.734375 427.511719 367.070312 427.414062 370.484375 C 427.316406 373.902344 427.691406 377.265625 428.542969 380.574219 L 425.734375 384.011719 C 419.644531 378.972656 413.09375 374.625 406.082031 370.96875 C 399.074219 367.3125 391.757812 364.429688 384.140625 362.320312 L 384.140625 310.152344 C 384.140625 293.058594 375.910156 284.730469 358.914062 284.730469 L 317.128906 284.730469 C 313.496094 269.71875 306.765625 264.636719 291.027344 264.636719 L 289.429688 264.585938 C 288.121094 264.523438 286.8125 264.554688 285.507812 264.683594 C 284.890625 264.820312 284.292969 264.753906 283.71875 264.492188 C 283.523438 264.34375 283.234375 263.859375 283.085938 262.410156 C 282.976562 261.394531 282.824219 260.382812 282.625 259.382812 C 282.429688 258.378906 282.1875 257.386719 281.90625 256.40625 C 281.621094 255.425781 281.292969 254.457031 280.925781 253.503906 C 280.558594 252.550781 280.148438 251.617188 279.699219 250.699219 C 279.25 249.78125 278.761719 248.886719 278.234375 248.011719 C 277.707031 247.136719 277.140625 246.285156 276.539062 245.460938 C 275.9375 244.632812 275.300781 243.835938 274.628906 243.066406 C 273.957031 242.296875 273.253906 241.558594 272.519531 240.847656 C 271.785156 240.140625 271.019531 239.464844 270.226562 238.820312 C 269.429688 238.179688 268.609375 237.570312 267.761719 237 C 266.914062 236.429688 266.042969 235.898438 265.152344 235.402344 C 264.257812 234.90625 263.34375 234.453125 262.410156 234.035156 C 261.476562 233.621094 260.527344 233.246094 259.5625 232.914062 C 258.59375 232.582031 257.617188 232.292969 256.625 232.042969 C 255.632812 231.796875 254.632812 231.59375 253.625 231.433594 C 252.617188 231.273438 251.601562 231.15625 250.582031 231.082031 C 249.566406 231.011719 248.542969 230.984375 247.523438 231 C 246.5 231.015625 245.484375 231.078125 244.464844 231.183594 C 243.449219 231.289062 242.441406 231.4375 241.4375 231.632812 C 240.433594 231.824219 239.441406 232.0625 238.460938 232.339844 C 237.476562 232.621094 236.507812 232.945312 235.554688 233.308594 C 234.597656 233.671875 233.664062 234.078125 232.742188 234.523438 C 231.824219 234.96875 230.925781 235.453125 230.046875 235.976562 C 229.171875 236.5 228.320312 237.0625 227.492188 237.660156 C 226.664062 238.257812 225.863281 238.890625 225.089844 239.558594 C 224.316406 240.226562 223.574219 240.929688 222.863281 241.660156 C 222.148438 242.394531 221.472656 243.15625 220.824219 243.949219 C 220.179688 244.738281 219.570312 245.558594 218.996094 246.402344 C 218.421875 247.246094 217.882812 248.117188 217.386719 249.007812 C 216.886719 249.898438 216.429688 250.8125 216.007812 251.742188 C 215.589844 252.671875 215.210938 253.621094 214.875 254.585938 C 214.539062 255.550781 214.242188 256.527344 213.992188 257.519531 C 213.757812 258.476562 213.582031 259.445312 213.460938 260.421875 C 213.21875 261.972656 212.925781 264.054688 212.296875 264.492188 C 210.710938 265.042969 209.097656 265.140625 207.453125 264.78125 C 206.511719 264.589844 205.558594 264.542969 204.597656 264.636719 C 189.589844 264.636719 182.375 270.300781 179.273438 284.730469 L 136.761719 284.730469 C 120.6875 284.75 112.164062 293.300781 112.164062 309.523438 L 112.164062 586.410156 C 112.089844 587.214844 112.0625 588.019531 112.074219 588.828125 C 112.089844 589.632812 112.148438 590.4375 112.253906 591.242188 C 112.355469 592.042969 112.5 592.835938 112.691406 593.621094 C 112.882812 594.40625 113.113281 595.179688 113.390625 595.9375 C 113.664062 596.695312 113.980469 597.441406 114.335938 598.164062 C 114.691406 598.890625 115.085938 599.59375 115.519531 600.273438 C 115.953125 600.957031 116.421875 601.613281 116.929688 602.242188 C 117.433594 602.875 117.972656 603.472656 118.542969 604.046875 C 119.113281 604.617188 119.714844 605.15625 120.34375 605.660156 C 120.976562 606.164062 121.632812 606.636719 122.3125 607.070312 C 122.996094 607.503906 123.699219 607.898438 124.425781 608.253906 C 125.148438 608.609375 125.890625 608.925781 126.652344 609.199219 C 127.410156 609.472656 128.183594 609.707031 128.96875 609.898438 C 129.753906 610.085938 130.546875 610.234375 131.347656 610.335938 C 132.148438 610.441406 132.953125 610.5 133.761719 610.511719 C 134.570312 610.527344 135.375 610.5 136.179688 610.425781 L 359.445312 610.425781 C 375.617188 610.425781 384.1875 601.902344 384.1875 585.777344 L 384.1875 564.667969 C 386.753906 563.964844 389.289062 563.167969 391.792969 562.273438 C 394.292969 561.378906 396.761719 560.390625 399.1875 559.308594 C 401.617188 558.222656 404 557.050781 406.339844 555.789062 C 408.679688 554.523438 410.964844 553.171875 413.203125 551.734375 C 415.4375 550.296875 417.617188 548.773438 419.734375 547.171875 C 421.855469 545.566406 423.914062 543.882812 425.902344 542.121094 C 427.894531 540.363281 429.820312 538.527344 431.671875 536.621094 C 433.523438 534.714844 435.300781 532.738281 437.003906 530.695312 C 438.703125 528.652344 440.324219 526.550781 441.867188 524.382812 C 443.410156 522.21875 444.867188 519.996094 446.238281 517.71875 C 447.609375 515.441406 448.894531 513.117188 450.089844 510.742188 C 451.285156 508.367188 452.390625 505.949219 453.398438 503.492188 C 454.410156 501.03125 455.328125 498.539062 456.148438 496.011719 C 456.96875 493.480469 457.695312 490.925781 458.320312 488.339844 C 458.949219 485.757812 459.476562 483.152344 459.902344 480.53125 C 460.332031 477.90625 460.660156 475.269531 460.886719 472.621094 C 461.1875 469.144531 461.320312 465.660156 461.28125 462.171875 C 461.242188 458.683594 461.035156 455.203125 460.65625 451.734375 C 460.28125 448.265625 459.734375 444.824219 459.023438 441.40625 C 458.308594 437.992188 457.429688 434.617188 456.390625 431.289062 C 455.347656 427.957031 454.148438 424.6875 452.785156 421.472656 C 451.425781 418.257812 449.910156 415.121094 448.246094 412.054688 C 446.578125 408.988281 444.765625 406.011719 442.808594 403.121094 C 440.851562 400.234375 438.761719 397.445312 436.53125 394.761719 L 439.4375 392.339844 C 443.421875 393.109375 447.429688 393.230469 451.453125 392.699219 C 455.480469 392.167969 459.316406 391.015625 462.96875 389.242188 C 465.367188 387.992188 467.605469 386.511719 469.695312 384.796875 C 471.78125 383.078125 473.667969 381.167969 475.359375 379.058594 C 477.046875 376.949219 478.5 374.6875 479.714844 372.277344 C 480.933594 369.863281 481.886719 367.351562 482.578125 364.738281 L 483.207031 362.175781 Z M 196.222656 302.113281 C 196.171875 297.320312 196.171875 292.476562 196.222656 287.683594 C 196.269531 283.179688 197.917969 281.582031 202.371094 281.484375 C 205.566406 281.390625 208.8125 281.4375 212.007812 281.4375 L 219.800781 281.4375 C 226.773438 281.339844 229.535156 278.53125 229.726562 271.511719 L 229.777344 269.476562 C 229.738281 267.679688 229.816406 265.890625 230.019531 264.101562 C 230.148438 263.007812 230.371094 261.933594 230.695312 260.878906 C 231.019531 259.824219 231.433594 258.808594 231.9375 257.828125 C 232.445312 256.847656 233.035156 255.921875 233.710938 255.050781 C 234.386719 254.179688 235.132812 253.375 235.953125 252.636719 C 236.773438 251.898438 237.652344 251.242188 238.589844 250.664062 C 239.527344 250.085938 240.511719 249.597656 241.539062 249.195312 C 242.566406 248.796875 243.621094 248.492188 244.703125 248.28125 C 245.789062 248.074219 246.878906 247.960938 247.984375 247.949219 L 248.128906 247.949219 C 249.242188 247.949219 250.347656 248.050781 251.445312 248.253906 C 252.539062 248.453125 253.609375 248.753906 254.652344 249.152344 C 255.691406 249.546875 256.691406 250.035156 257.644531 250.613281 C 258.59375 251.191406 259.488281 251.851562 260.320312 252.59375 C 261.152344 253.335938 261.910156 254.144531 262.59375 255.027344 C 263.28125 255.90625 263.878906 256.839844 264.390625 257.828125 C 264.90625 258.816406 265.324219 259.847656 265.652344 260.910156 C 265.980469 261.976562 266.207031 263.0625 266.335938 264.171875 C 266.527344 265.867188 266.527344 267.5625 266.578125 269.253906 C 266.578125 270.367188 266.578125 271.433594 266.625 272.5 C 266.570312 273.101562 266.585938 273.703125 266.664062 274.300781 C 266.746094 274.902344 266.890625 275.484375 267.097656 276.054688 C 267.304688 276.621094 267.574219 277.160156 267.902344 277.667969 C 268.226562 278.175781 268.605469 278.644531 269.035156 279.070312 C 269.464844 279.492188 269.9375 279.867188 270.449219 280.1875 C 270.960938 280.511719 271.503906 280.773438 272.074219 280.972656 C 272.640625 281.175781 273.226562 281.316406 273.828125 281.386719 C 274.429688 281.460938 275.027344 281.46875 275.632812 281.410156 C 278.972656 281.503906 282.265625 281.457031 285.558594 281.457031 C 288.21875 281.457031 290.882812 281.457031 293.546875 281.503906 C 298.535156 281.554688 300.082031 283.105469 300.132812 288.1875 C 300.132812 293.851562 300.179688 299.519531 300.132812 305.183594 C 300.082031 309.929688 298.484375 311.574219 293.738281 311.574219 C 282.796875 311.625 271.855469 311.574219 260.863281 311.574219 L 203.386719 311.574219 C 197.578125 311.574219 196.222656 310.171875 196.222656 304.214844 Z M 367.242188 586.195312 C 367.242188 592.101562 365.886719 593.507812 360.027344 593.507812 L 136.324219 593.507812 C 135.300781 593.636719 134.285156 593.578125 133.285156 593.328125 C 132.28125 593.078125 131.359375 592.652344 130.515625 592.054688 C 129.917969 591.203125 129.496094 590.269531 129.242188 589.261719 C 128.992188 588.25 128.933594 587.226562 129.0625 586.195312 L 129.109375 512.984375 C 129.160156 477.734375 129.175781 442.484375 129.160156 407.234375 C 129.160156 387.429688 129.144531 367.59375 129.109375 347.726562 L 129.109375 309.28125 C 128.945312 308.1875 128.984375 307.101562 129.226562 306.023438 C 129.46875 304.945312 129.898438 303.949219 130.515625 303.035156 C 131.453125 302.429688 132.46875 302.007812 133.5625 301.765625 C 134.652344 301.523438 135.75 301.476562 136.859375 301.628906 L 179.273438 301.628906 L 179.273438 302.257812 C 179.273438 303.855469 179.273438 305.359375 179.324219 306.859375 C 179.320312 307.5625 179.355469 308.261719 179.421875 308.960938 C 179.488281 309.664062 179.589844 310.359375 179.726562 311.046875 C 179.863281 311.738281 180.03125 312.417969 180.234375 313.09375 C 180.433594 313.765625 180.671875 314.425781 180.9375 315.078125 C 181.203125 315.726562 181.503906 316.363281 181.832031 316.984375 C 182.164062 317.605469 182.523438 318.207031 182.910156 318.792969 C 183.300781 319.378906 183.714844 319.945312 184.160156 320.492188 C 184.605469 321.035156 185.074219 321.558594 185.570312 322.054688 C 186.066406 322.554688 186.582031 323.027344 187.125 323.476562 C 187.667969 323.925781 188.230469 324.34375 188.8125 324.738281 C 189.394531 325.128906 189.996094 325.492188 190.617188 325.828125 C 191.234375 326.160156 191.867188 326.464844 192.515625 326.734375 C 193.164062 327.007812 193.824219 327.246094 194.496094 327.453125 C 195.167969 327.660156 195.851562 327.832031 196.539062 327.972656 C 197.226562 328.113281 197.921875 328.21875 198.621094 328.292969 C 199.320312 328.363281 200.023438 328.402344 200.726562 328.40625 C 231.472656 328.550781 263.378906 328.550781 295.578125 328.40625 C 296.285156 328.402344 296.984375 328.367188 297.6875 328.296875 C 298.386719 328.226562 299.082031 328.121094 299.773438 327.980469 C 300.460938 327.839844 301.144531 327.667969 301.816406 327.460938 C 302.488281 327.257812 303.152344 327.019531 303.800781 326.746094 C 304.449219 326.476562 305.085938 326.171875 305.707031 325.839844 C 306.324219 325.507812 306.929688 325.144531 307.511719 324.75 C 308.097656 324.359375 308.660156 323.9375 309.203125 323.492188 C 309.746094 323.042969 310.265625 322.570312 310.761719 322.070312 C 311.261719 321.570312 311.730469 321.050781 312.175781 320.503906 C 312.621094 319.960938 313.039062 319.394531 313.429688 318.808594 C 313.820312 318.222656 314.179688 317.617188 314.511719 316.996094 C 314.839844 316.375 315.140625 315.738281 315.410156 315.085938 C 315.675781 314.4375 315.914062 313.773438 316.117188 313.101562 C 316.320312 312.425781 316.488281 311.742188 316.625 311.050781 C 316.761719 310.363281 316.863281 309.667969 316.929688 308.964844 C 316.996094 308.265625 317.03125 307.5625 317.03125 306.859375 C 317.078125 305.503906 317.03125 304.097656 317.03125 302.453125 L 317.03125 301.628906 L 358.527344 301.628906 C 366.371094 301.628906 367.242188 302.5 367.242188 310.152344 L 367.242188 359.054688 C 363.589844 358.644531 359.929688 358.425781 356.257812 358.40625 C 352.582031 358.382812 348.917969 358.558594 345.261719 358.929688 C 341.609375 359.296875 337.984375 359.859375 334.390625 360.617188 C 330.792969 361.375 327.25 362.320312 323.757812 363.457031 C 320.261719 364.59375 316.839844 365.910156 313.488281 367.414062 C 310.132812 368.914062 306.871094 370.589844 303.695312 372.4375 C 300.523438 374.289062 297.457031 376.300781 294.496094 378.480469 C 291.539062 380.65625 288.703125 382.984375 285.992188 385.464844 L 244.0625 385.464844 C 242.894531 385.441406 241.734375 385.488281 240.574219 385.609375 C 240.070312 385.660156 239.574219 385.757812 239.089844 385.898438 C 238.605469 386.039062 238.136719 386.222656 237.683594 386.449219 C 237.230469 386.679688 236.800781 386.945312 236.398438 387.25 C 235.996094 387.554688 235.621094 387.894531 235.28125 388.269531 C 234.9375 388.640625 234.632812 389.042969 234.367188 389.472656 C 234.097656 389.902344 233.871094 390.351562 233.683594 390.824219 C 233.5 391.292969 233.355469 391.777344 233.257812 392.273438 C 233.160156 392.769531 233.109375 393.273438 233.105469 393.777344 C 233.097656 394.285156 233.136719 394.789062 233.222656 395.285156 C 233.308594 395.785156 233.441406 396.273438 233.613281 396.746094 C 233.789062 397.222656 234.007812 397.675781 234.265625 398.113281 C 234.523438 398.546875 234.816406 398.957031 235.152344 399.339844 C 235.484375 399.71875 235.847656 400.066406 236.246094 400.382812 C 236.640625 400.699219 237.0625 400.972656 237.507812 401.210938 C 237.957031 401.449219 238.421875 401.644531 238.902344 401.796875 C 239.386719 401.949219 239.878906 402.058594 240.382812 402.121094 C 241.328125 402.257812 242.28125 402.320312 243.238281 402.3125 L 271.128906 402.3125 C 268.5 406.007812 266.128906 409.855469 264.003906 413.859375 C 261.882812 417.863281 260.03125 421.988281 258.449219 426.234375 C 256.867188 430.484375 255.570312 434.816406 254.554688 439.230469 C 253.539062 443.648438 252.820312 448.113281 252.390625 452.625 L 243.964844 452.625 C 242.78125 452.597656 241.605469 452.644531 240.429688 452.769531 C 239.925781 452.824219 239.429688 452.929688 238.945312 453.078125 C 238.460938 453.226562 237.992188 453.417969 237.542969 453.652344 C 237.089844 453.886719 236.664062 454.160156 236.265625 454.46875 C 235.863281 454.78125 235.496094 455.128906 235.160156 455.507812 C 234.824219 455.886719 234.523438 456.296875 234.261719 456.730469 C 234 457.164062 233.777344 457.621094 233.601562 458.09375 C 233.421875 458.570312 233.285156 459.058594 233.199219 459.554688 C 233.109375 460.054688 233.066406 460.558594 233.066406 461.066406 C 233.070312 461.574219 233.121094 462.078125 233.214844 462.578125 C 233.308594 463.074219 233.449219 463.5625 233.632812 464.035156 C 233.820312 464.507812 234.042969 464.960938 234.3125 465.390625 C 234.578125 465.820312 234.882812 466.226562 235.222656 466.601562 C 235.566406 466.976562 235.9375 467.320312 236.34375 467.625 C 236.746094 467.933594 237.175781 468.203125 237.628906 468.429688 C 238.082031 468.660156 238.550781 468.84375 239.039062 468.988281 C 239.523438 469.128906 240.019531 469.226562 240.527344 469.28125 C 241.199219 469.375 241.878906 469.425781 242.558594 469.425781 L 252.050781 469.425781 C 252.554688 478.367188 254.175781 487.101562 256.90625 495.628906 C 259.636719 504.160156 263.394531 512.210938 268.175781 519.78125 L 243.480469 519.78125 C 243.238281 519.78125 242.945312 519.734375 242.65625 519.734375 C 241.980469 519.589844 241.308594 519.585938 240.632812 519.730469 C 239.957031 519.875 239.339844 520.148438 238.78125 520.558594 L 238.105469 521.1875 C 235.882812 522.789062 234.285156 524.871094 233.3125 527.433594 C 233.066406 528.28125 233 529.144531 233.121094 530.023438 C 233.238281 530.898438 233.527344 531.714844 233.988281 532.46875 C 234.59375 533.414062 235.355469 534.207031 236.28125 534.847656 C 237.203125 535.484375 238.214844 535.917969 239.316406 536.148438 C 240.847656 536.464844 242.398438 536.59375 243.964844 536.535156 L 281.488281 536.535156 C 283.917969 539.046875 286.464844 541.433594 289.128906 543.691406 C 291.796875 545.949219 294.570312 548.066406 297.449219 550.046875 C 300.328125 552.023438 303.296875 553.855469 306.359375 555.535156 C 309.421875 557.21875 312.5625 558.742188 315.777344 560.109375 C 318.992188 561.476562 322.265625 562.679688 325.601562 563.71875 C 328.9375 564.753906 332.316406 565.625 335.738281 566.324219 C 339.164062 567.023438 342.613281 567.550781 346.085938 567.90625 C 349.5625 568.261719 353.046875 568.441406 356.542969 568.445312 C 360.117188 568.445312 363.6875 568.25 367.242188 567.863281 Z M 423.601562 522.492188 C 418.308594 528.515625 412.320312 533.742188 405.632812 538.167969 C 398.949219 542.59375 391.800781 546.070312 384.1875 548.59375 C 378.671875 550.441406 373.023438 551.699219 367.242188 552.367188 C 365.042969 552.699219 362.832031 552.910156 360.609375 553 C 355.667969 553.261719 350.746094 553.101562 345.832031 552.523438 C 340.921875 551.945312 336.09375 550.957031 331.351562 549.554688 C 326.609375 548.152344 322.019531 546.359375 317.582031 544.171875 C 313.144531 541.988281 308.925781 539.441406 304.925781 536.535156 C 302.085938 534.515625 299.390625 532.320312 296.839844 529.949219 C 293.421875 526.785156 290.242188 523.394531 287.300781 519.78125 C 284.398438 516.21875 281.785156 512.453125 279.457031 508.488281 C 277.132812 504.527344 275.117188 500.410156 273.417969 496.140625 C 271.71875 491.871094 270.351562 487.496094 269.316406 483.015625 C 268.285156 478.539062 267.597656 474.007812 267.253906 469.425781 C 267.109375 468.019531 267.058594 466.566406 267.011719 465.164062 C 266.914062 460.96875 267.105469 456.789062 267.59375 452.625 C 268.136719 447.933594 269.050781 443.320312 270.339844 438.78125 C 271.625 434.238281 273.269531 429.832031 275.269531 425.554688 C 277.269531 421.28125 279.601562 417.195312 282.257812 413.296875 C 284.917969 409.394531 287.875 405.734375 291.125 402.3125 C 291.535156 401.804688 291.96875 401.320312 292.433594 400.863281 C 298.332031 394.800781 304.949219 389.667969 312.285156 385.464844 C 319.019531 381.59375 326.136719 378.660156 333.640625 376.65625 C 341.140625 374.652344 348.777344 373.652344 356.542969 373.648438 C 360.125 373.632812 363.691406 373.859375 367.242188 374.328125 C 371.589844 374.847656 375.875 375.683594 380.101562 376.84375 C 384.324219 378 388.4375 379.464844 392.441406 381.238281 C 396.445312 383.011719 400.296875 385.070312 403.992188 387.417969 C 407.691406 389.765625 411.191406 392.375 414.5 395.246094 L 398.039062 411.078125 C 393.707031 407.785156 389.074219 404.996094 384.140625 402.703125 C 378.753906 400.164062 373.121094 398.417969 367.242188 397.472656 C 361.5 396.539062 355.734375 396.410156 349.957031 397.085938 C 347.085938 397.351562 344.246094 397.804688 341.433594 398.441406 C 337.386719 399.328125 333.464844 400.605469 329.667969 402.265625 C 324.199219 404.660156 319.15625 407.753906 314.542969 411.546875 C 309.925781 415.339844 305.914062 419.6875 302.503906 424.585938 C 299.503906 428.746094 297.019531 433.191406 295.058594 437.925781 C 293.09375 442.664062 291.703125 447.5625 290.882812 452.625 C 289.9375 458.199219 289.742188 463.796875 290.300781 469.425781 C 290.71875 473.503906 291.5 477.511719 292.644531 481.445312 C 293.789062 485.382812 295.277344 489.183594 297.117188 492.847656 C 298.953125 496.511719 301.105469 499.980469 303.570312 503.253906 C 306.039062 506.527344 308.78125 509.550781 311.800781 512.324219 C 314.773438 515.128906 318 517.597656 321.484375 519.734375 C 325.84375 522.496094 330.464844 524.707031 335.351562 526.359375 C 340.238281 528.011719 345.253906 529.0625 350.390625 529.515625 C 356.03125 530.089844 361.648438 529.910156 367.242188 528.980469 C 372.910156 528.101562 378.363281 526.496094 383.601562 524.160156 C 388.84375 521.828125 393.6875 518.851562 398.132812 515.230469 C 399.804688 513.878906 401.410156 512.449219 402.945312 510.945312 C 404.476562 509.4375 405.9375 507.863281 407.320312 506.214844 C 408.703125 504.570312 410.003906 502.863281 411.222656 501.089844 C 412.441406 499.320312 413.574219 497.496094 414.617188 495.617188 C 415.660156 493.738281 416.613281 491.8125 417.472656 489.839844 C 418.332031 487.871094 419.09375 485.863281 419.761719 483.820312 C 420.425781 481.773438 420.996094 479.703125 421.460938 477.605469 C 421.929688 475.507812 422.296875 473.390625 422.558594 471.257812 C 422.824219 469.125 422.988281 466.980469 423.046875 464.832031 C 423.105469 462.683594 423.058594 460.539062 422.914062 458.390625 C 422.765625 456.246094 422.515625 454.113281 422.164062 451.992188 C 421.8125 449.871094 421.359375 447.773438 420.804688 445.695312 C 420.253906 443.617188 419.601562 441.574219 418.851562 439.558594 C 418.101562 437.542969 417.257812 435.570312 416.316406 433.636719 C 415.378906 431.699219 414.347656 429.816406 413.226562 427.980469 C 412.105469 426.148438 410.902344 424.371094 409.609375 422.652344 L 425.492188 406.625 C 427.183594 408.640625 428.785156 410.730469 430.289062 412.894531 C 431.796875 415.054688 433.203125 417.277344 434.507812 419.566406 C 435.816406 421.851562 437.019531 424.191406 438.117188 426.585938 C 439.214844 428.980469 440.207031 431.417969 441.085938 433.902344 C 441.964844 436.386719 442.734375 438.902344 443.390625 441.453125 C 444.046875 444.003906 444.585938 446.578125 445.011719 449.179688 C 445.4375 451.777344 445.746094 454.390625 445.9375 457.019531 C 446.128906 459.648438 446.203125 462.277344 446.160156 464.910156 C 446.117188 467.542969 445.957031 470.171875 445.679688 472.789062 C 445.402344 475.410156 445.007812 478.011719 444.5 480.597656 C 443.988281 483.179688 443.367188 485.738281 442.628906 488.265625 C 441.886719 490.792969 441.039062 493.285156 440.078125 495.738281 C 439.117188 498.191406 438.050781 500.59375 436.875 502.953125 C 435.699219 505.308594 434.417969 507.609375 433.039062 509.851562 C 431.65625 512.097656 430.179688 514.273438 428.601562 516.382812 C 427.027344 518.496094 425.359375 520.53125 423.601562 522.492188 Z M 323.664062 502.351562 C 321.214844 500.28125 318.984375 498.003906 316.964844 495.515625 C 314.949219 493.027344 313.179688 490.371094 311.664062 487.550781 C 310.148438 484.726562 308.910156 481.789062 307.945312 478.734375 C 306.984375 475.675781 306.316406 472.558594 305.941406 469.375 C 305.84375 468.503906 305.75 467.632812 305.699219 466.714844 C 305.367188 461.964844 305.722656 457.269531 306.765625 452.625 C 307.710938 448.164062 309.222656 443.90625 311.300781 439.847656 C 313.378906 435.792969 315.949219 432.078125 319.015625 428.703125 C 321.269531 426.238281 323.742188 424.015625 326.4375 422.042969 C 329.132812 420.066406 331.992188 418.375 335.023438 416.964844 C 338.050781 415.558594 341.191406 414.460938 344.4375 413.671875 C 347.683594 412.886719 350.976562 412.425781 354.3125 412.289062 C 355.136719 412.242188 355.960938 412.242188 356.832031 412.242188 C 360.34375 412.214844 363.816406 412.585938 367.242188 413.355469 C 373.363281 414.570312 378.996094 416.941406 384.140625 420.472656 C 385.207031 421.199219 386.222656 421.972656 387.238281 422.796875 L 372.714844 437.320312 C 370.957031 436.390625 369.132812 435.613281 367.242188 435 C 365.441406 434.332031 363.597656 433.835938 361.707031 433.503906 C 359.816406 433.175781 357.910156 433.019531 355.992188 433.035156 C 354.070312 433.050781 352.167969 433.242188 350.285156 433.601562 C 348.398438 433.964844 346.5625 434.496094 344.773438 435.191406 C 343.972656 435.535156 343.1875 435.910156 342.421875 436.316406 C 341.652344 436.726562 340.902344 437.167969 340.171875 437.640625 C 339.4375 438.113281 338.730469 438.617188 338.042969 439.152344 C 337.355469 439.683594 336.691406 440.25 336.050781 440.839844 C 335.410156 441.429688 334.796875 442.046875 334.210938 442.691406 C 333.625 443.335938 333.066406 444.003906 332.539062 444.695312 C 332.007812 445.386719 331.511719 446.097656 331.042969 446.832031 C 330.574219 447.566406 330.136719 448.320312 329.734375 449.09375 C 329.332031 449.863281 328.960938 450.652344 328.625 451.457031 C 328.289062 452.257812 327.988281 453.074219 327.722656 453.90625 C 327.457031 454.734375 327.230469 455.574219 327.035156 456.421875 C 326.839844 457.269531 326.683594 458.128906 326.5625 458.988281 C 326.445312 459.851562 326.359375 460.71875 326.316406 461.585938 C 326.269531 462.457031 326.261719 463.328125 326.289062 464.199219 C 326.316406 465.066406 326.382812 465.9375 326.488281 466.800781 C 326.589844 467.664062 326.730469 468.523438 326.90625 469.375 C 327.398438 471.894531 328.207031 474.308594 329.332031 476.613281 C 330.457031 478.921875 331.859375 481.042969 333.542969 482.984375 C 334.550781 484.152344 335.644531 485.242188 336.816406 486.25 C 337.992188 487.257812 339.234375 488.167969 340.546875 488.988281 C 341.859375 489.804688 343.226562 490.519531 344.644531 491.132812 C 346.066406 491.742188 347.523438 492.246094 349.019531 492.636719 C 350.515625 493.027344 352.03125 493.304688 353.570312 493.464844 C 355.109375 493.628906 356.648438 493.671875 358.195312 493.601562 C 359.738281 493.53125 361.269531 493.34375 362.785156 493.039062 C 364.304688 492.738281 365.789062 492.324219 367.242188 491.796875 C 368.882812 491.210938 370.449219 490.46875 371.9375 489.566406 C 373.460938 488.539062 374.875 487.378906 376.179688 486.085938 C 377.488281 484.796875 378.660156 483.394531 379.707031 481.882812 C 380.75 480.371094 381.644531 478.773438 382.390625 477.09375 C 383.136719 475.417969 383.71875 473.683594 384.140625 471.894531 C 384.671875 469.886719 385.027344 467.851562 385.210938 465.785156 C 385.390625 463.714844 385.390625 461.648438 385.214844 459.578125 C 385.039062 457.511719 384.683594 455.472656 384.15625 453.464844 C 383.625 451.460938 382.929688 449.511719 382.0625 447.625 L 396.875 432.945312 C 409.902344 447.277344 412.320312 476.183594 395.808594 495.792969 C 392.433594 499.804688 388.558594 503.261719 384.1875 506.15625 C 378.96875 509.542969 373.320312 511.898438 367.242188 513.226562 C 364.976562 513.753906 362.683594 514.109375 360.367188 514.292969 C 357.0625 514.566406 353.765625 514.515625 350.472656 514.132812 C 347.179688 513.75 343.957031 513.046875 340.808594 512.019531 C 337.65625 510.992188 334.636719 509.664062 331.75 508.03125 C 328.867188 506.402344 326.167969 504.5 323.664062 502.332031 Z M 344.4375 454.414062 L 345.308594 453.253906 C 345.945312 452.488281 346.660156 451.800781 347.453125 451.195312 C 348.242188 450.589844 349.089844 450.078125 349.996094 449.660156 C 350.898438 449.238281 351.835938 448.925781 352.8125 448.714844 C 353.785156 448.503906 354.769531 448.402344 355.765625 448.410156 C 357.078125 448.40625 358.371094 448.570312 359.640625 448.894531 L 351.941406 457.125 C 351.699219 457.382812 351.378906 457.742188 351.03125 458.1875 C 351.03125 458.1875 350.609375 458.71875 350.296875 459.207031 C 349.707031 460.144531 349.328125 461.160156 349.160156 462.253906 C 348.992188 463.347656 349.046875 464.433594 349.328125 465.503906 C 349.761719 466.777344 350.488281 467.859375 351.503906 468.746094 C 351.867188 469.101562 352.257812 469.425781 352.675781 469.714844 C 353.183594 470.054688 353.722656 470.328125 354.292969 470.535156 C 354.363281 470.558594 354.394531 470.597656 354.46875 470.621094 C 354.542969 470.644531 354.628906 470.621094 354.707031 470.660156 C 355.351562 470.863281 356.011719 470.976562 356.6875 471 C 357.863281 470.894531 358.976562 470.566406 360.023438 470.023438 C 361.070312 469.476562 361.976562 468.753906 362.738281 467.851562 C 364.289062 466.203125 365.789062 464.460938 367.242188 462.816406 C 367.679688 462.332031 368.066406 461.894531 368.453125 461.410156 L 370.484375 459.378906 C 370.910156 460.609375 371.160156 461.875 371.230469 463.175781 C 371.304688 464.472656 371.195312 465.757812 370.910156 467.03125 C 370.625 468.300781 370.167969 469.507812 369.546875 470.648438 C 368.921875 471.792969 368.15625 472.828125 367.242188 473.757812 C 366.695312 474.3125 366.113281 474.828125 365.5 475.308594 C 364.792969 475.828125 364.046875 476.28125 363.257812 476.667969 C 362.472656 477.058594 361.660156 477.375 360.816406 477.625 C 359.976562 477.871094 359.121094 478.042969 358.25 478.144531 C 357.378906 478.242188 356.503906 478.265625 355.628906 478.210938 C 354.753906 478.160156 353.890625 478.03125 353.035156 477.828125 C 352.183594 477.625 351.355469 477.351562 350.546875 477.003906 C 349.742188 476.660156 348.972656 476.246094 348.238281 475.765625 C 347.507812 475.285156 346.820312 474.746094 346.179688 474.144531 C 344.726562 472.765625 343.613281 471.152344 342.839844 469.304688 C 342.335938 468.09375 341.988281 466.839844 341.800781 465.542969 C 341.613281 464.246094 341.589844 462.949219 341.730469 461.644531 C 341.871094 460.34375 342.167969 459.078125 342.628906 457.851562 C 343.085938 456.621094 343.6875 455.472656 344.4375 454.394531 Z M 453.964844 376.359375 C 452.367188 377.164062 450.679688 377.625 448.898438 377.742188 C 447.117188 377.859375 445.382812 377.625 443.699219 377.039062 C 441.710938 368.757812 442.4375 365.371094 446.3125 362.027344 L 448.539062 371.035156 L 457.789062 373.070312 C 456.75 374.4375 455.476562 375.527344 453.960938 376.339844 Z M 148.238281 399.777344 C 147.65625 399.195312 147.167969 398.539062 146.78125 397.8125 C 146.390625 397.085938 146.113281 396.316406 145.949219 395.507812 C 145.789062 394.699219 145.742188 393.886719 145.820312 393.066406 C 145.898438 392.246094 146.089844 391.453125 146.398438 390.6875 C 146.710938 389.925781 147.121094 389.222656 147.640625 388.578125 C 148.15625 387.9375 148.753906 387.382812 149.433594 386.914062 C 150.113281 386.449219 150.847656 386.089844 151.632812 385.839844 C 152.417969 385.589844 153.222656 385.457031 154.046875 385.445312 C 155.230469 385.476562 156.367188 385.726562 157.457031 386.195312 C 158.542969 386.664062 159.503906 387.316406 160.34375 388.15625 C 163.730469 391.546875 166.976562 395.03125 170.363281 398.664062 L 173.367188 401.859375 L 198.011719 372.324219 C 199.125 370.96875 200.242188 369.609375 201.449219 368.351562 C 201.789062 367.925781 202.167969 367.539062 202.582031 367.191406 C 203 366.839844 203.445312 366.535156 203.921875 366.273438 C 204.394531 366.011719 204.894531 365.796875 205.410156 365.636719 C 205.929688 365.472656 206.457031 365.359375 207 365.300781 C 207.539062 365.242188 208.078125 365.238281 208.621094 365.289062 C 209.164062 365.335938 209.695312 365.4375 210.214844 365.589844 C 210.734375 365.746094 211.238281 365.949219 211.71875 366.199219 C 212.199219 366.453125 212.648438 366.75 213.070312 367.09375 C 213.949219 367.777344 214.664062 368.597656 215.21875 369.5625 C 215.773438 370.527344 216.121094 371.558594 216.265625 372.660156 C 216.375 373.84375 216.253906 375 215.898438 376.132812 C 215.546875 377.265625 214.992188 378.285156 214.234375 379.199219 C 210.359375 384.039062 206.339844 388.835938 202.371094 393.578125 L 192.734375 405.101562 C 188.957031 409.605469 185.183594 414.109375 181.5 418.660156 C 180.730469 419.765625 179.765625 420.664062 178.609375 421.355469 C 177.453125 422.050781 176.207031 422.472656 174.867188 422.632812 C 174.726562 422.671875 174.582031 422.6875 174.433594 422.679688 C 173.3125 422.640625 172.238281 422.386719 171.21875 421.925781 C 170.195312 421.464844 169.296875 420.828125 168.523438 420.015625 C 162.519531 414.304688 156.273438 408.058594 148.238281 399.777344 Z M 215.152344 445.019531 C 214.582031 446.089844 213.871094 447.058594 213.023438 447.925781 L 212.492188 448.554688 C 202.46875 460.613281 192.445312 472.636719 182.421875 484.628906 C 181.5625 485.988281 180.464844 487.105469 179.121094 487.984375 C 177.777344 488.863281 176.308594 489.421875 174.722656 489.664062 L 174.433594 489.664062 C 172.867188 489.492188 171.398438 489.019531 170.019531 488.257812 C 168.644531 487.492188 167.46875 486.492188 166.492188 485.257812 C 160.535156 479.351562 154.820312 473.636719 149.109375 467.875 C 148.621094 467.507812 148.183594 467.09375 147.785156 466.628906 C 147.390625 466.167969 147.046875 465.667969 146.757812 465.132812 C 146.46875 464.59375 146.238281 464.035156 146.070312 463.449219 C 145.902344 462.863281 145.796875 462.265625 145.757812 461.660156 C 145.714844 461.050781 145.742188 460.445312 145.828125 459.84375 C 145.917969 459.242188 146.070312 458.65625 146.289062 458.085938 C 146.503906 457.515625 146.777344 456.976562 147.109375 456.464844 C 147.4375 455.953125 147.820312 455.484375 148.253906 455.054688 C 148.6875 454.625 149.160156 454.246094 149.671875 453.917969 C 150.1875 453.589844 150.730469 453.324219 151.300781 453.113281 C 151.871094 452.902344 152.460938 452.753906 153.0625 452.667969 C 153.667969 452.582031 154.273438 452.5625 154.878906 452.609375 C 155.488281 452.65625 156.082031 452.765625 156.667969 452.9375 C 157.25 453.113281 157.808594 453.34375 158.34375 453.636719 C 158.878906 453.933594 159.375 454.277344 159.832031 454.679688 C 160.292969 455.078125 160.703125 455.523438 161.070312 456.011719 C 164.214844 459.160156 167.316406 462.355469 170.605469 465.695312 L 173.5625 468.796875 L 198.546875 438.871094 C 199.683594 437.417969 200.910156 436.046875 202.226562 434.757812 C 202.578125 434.367188 202.96875 434.019531 203.390625 433.707031 C 203.816406 433.398438 204.265625 433.132812 204.742188 432.910156 C 205.21875 432.691406 205.710938 432.519531 206.222656 432.394531 C 206.734375 432.273438 207.25 432.199219 207.777344 432.179688 C 208.300781 432.160156 208.820312 432.191406 209.339844 432.273438 C 209.859375 432.359375 210.363281 432.492188 210.855469 432.675781 C 211.347656 432.859375 211.816406 433.089844 212.261719 433.367188 C 212.710938 433.644531 213.125 433.960938 213.507812 434.320312 C 213.890625 434.632812 214.246094 434.976562 214.566406 435.355469 C 214.886719 435.734375 215.171875 436.136719 215.417969 436.570312 C 215.664062 437 215.871094 437.449219 216.035156 437.917969 C 216.199219 438.382812 216.316406 438.863281 216.394531 439.351562 C 216.46875 439.84375 216.496094 440.335938 216.484375 440.832031 C 216.46875 441.328125 216.40625 441.816406 216.300781 442.300781 C 216.195312 442.785156 216.046875 443.257812 215.851562 443.714844 C 215.660156 444.171875 215.425781 444.605469 215.152344 445.019531 Z M 213.410156 501.671875 C 217.234375 505.015625 217.140625 510.050781 213.21875 514.84375 C 210.554688 518.085938 207.890625 521.28125 205.226562 524.429688 L 195.785156 535.808594 C 191.1875 541.28125 186.585938 546.785156 181.984375 552.320312 C 181.148438 553.546875 180.097656 554.550781 178.832031 555.324219 C 177.566406 556.101562 176.195312 556.585938 174.722656 556.773438 C 174.613281 556.8125 174.5 556.828125 174.382812 556.824219 C 173.011719 556.707031 171.714844 556.335938 170.492188 555.707031 C 169.265625 555.078125 168.207031 554.238281 167.316406 553.191406 C 161.164062 547.089844 155.015625 540.988281 148.964844 534.839844 C 147.980469 533.914062 147.21875 532.832031 146.671875 531.597656 C 146.125 530.363281 145.839844 529.074219 145.816406 527.722656 C 145.851562 526.621094 146.101562 525.570312 146.5625 524.570312 C 147.027344 523.574219 147.664062 522.703125 148.480469 521.960938 C 148.914062 521.570312 149.382812 521.226562 149.886719 520.933594 C 150.390625 520.640625 150.917969 520.398438 151.46875 520.210938 C 152.023438 520.023438 152.589844 519.890625 153.167969 519.820312 C 153.746094 519.746094 154.328125 519.734375 154.910156 519.777344 C 155.492188 519.824219 156.0625 519.925781 156.621094 520.089844 C 157.183594 520.25 157.722656 520.464844 158.238281 520.738281 C 158.757812 521.007812 159.242188 521.328125 159.691406 521.695312 C 160.144531 522.066406 160.554688 522.476562 160.921875 522.929688 C 164.167969 526.171875 167.316406 529.464844 170.605469 532.902344 L 173.5625 536.003906 L 198.449219 506.128906 C 198.980469 505.449219 199.5625 504.773438 200.144531 504.09375 C 201.042969 502.867188 202.140625 501.859375 203.441406 501.070312 C 204.742188 500.28125 206.144531 499.769531 207.648438 499.542969 C 208.714844 499.488281 209.746094 499.648438 210.746094 500.019531 C 211.75 500.386719 212.636719 500.941406 213.410156 501.671875 Z M 213.410156 501.671875 " fill-opacity="1" fill-rule="nonzero"/></g></svg>